<svg xmlns="http://www.w3.org/2000/svg" viewBox="0 0 158.45 197.33"><defs><style>.cls-1{fill:#178465;}.cls-2{fill:#1ac699;}</style></defs><title>Ativo 2</title><g id="Camada_2" data-name="Camada 2"><g id="BACKGROUND"><path class="cls-1" d="M9.49,139.4a3.75,3.75,0,0,1-3.38-2.83A120.51,120.51,0,0,1,0,98.31c0-2.57,1.65-4.65,3.67-4.65s3.67,2.08,3.67,4.65A108.93,108.93,0,0,0,12.87,133c.79,2.37-.09,5.09-1.95,6.09A3,3,0,0,1,9.49,139.4Z"/><path class="cls-1" d="M143.72,150.32a3,3,0,0,1-1.56-.44c-1.83-1.1-2.62-3.86-1.76-6.18a106.58,106.58,0,0,0,6.12-26.65c.26-2.54,2.09-4.35,4.1-4s3.43,2.64,3.18,5.19A118.24,118.24,0,0,1,147,147.65,3.72,3.72,0,0,1,143.72,150.32Z"/><path class="cls-1" d="M151.79,102.94c-2,0-3.67-2.07-3.67-4.63,0-35.87-16.88-68.06-43-82-1.87-1-2.74-3.73-1.95-6.09s2.94-3.46,4.81-2.46c28.84,15.42,47.47,51,47.47,90.58C155.46,100.87,153.82,102.94,151.79,102.94Z"/><path class="cls-1" d="M7.77,72.16a2.93,2.93,0,0,1-1.21-.26C4.65,71.05,3.63,68.41,4.3,66,15.16,26.52,44.67,0,77.73,0c2,0,3.67,2.08,3.67,4.64s-1.64,4.64-3.67,4.64c-29.94,0-56.67,24-66.5,59.76A3.85,3.85,0,0,1,7.77,72.16Z"/><path class="cls-1" d="M18.91,112.08c-1.82,0-3.41-1.73-3.63-4.08-.31-3.2-.46-6.46-.46-9.69,0-28.23,12-54.6,31.3-68.82,1.76-1.29,4-.54,5,1.68a5.38,5.38,0,0,1-1.32,6.35C32.75,50.08,22.15,73.37,22.15,98.31c0,2.86.14,5.75.41,8.57.25,2.54-1.19,4.86-3.19,5.16A2.45,2.45,0,0,1,18.91,112.08Z"/><path class="cls-1" d="M114.14,43.83a3.21,3.21,0,0,1-2.26-1C102.05,33.15,90.24,28,77.73,28a44.09,44.09,0,0,0-8,.73c-2,.36-3.88-1.4-4.16-3.93s1.1-4.89,3.1-5.26a50.38,50.38,0,0,1,9.09-.82c14.16,0,27.53,5.8,38.67,16.79a5.52,5.52,0,0,1,.63,6.52A3.44,3.44,0,0,1,114.14,43.83Z"/><path class="cls-1" d="M116.69,182.61a3.19,3.19,0,0,1-2.32-1.05,5.52,5.52,0,0,1-.52-6.53c19.07-29.41,28.23-80.44,10.55-114.92a5.42,5.42,0,0,1,1.08-6.42c1.7-1.39,4-.77,5.07,1.37,9,17.62,12.5,40.71,9.76,65-2.5,22.15-10.07,44.32-20.78,60.83A3.44,3.44,0,0,1,116.69,182.61Z"/><path class="cls-1" d="M81.52,131.16c-2,0-3.58-2-3.66-4.47a145.13,145.13,0,0,0-3-25.74c-.53-2.48.63-5,2.59-5.68s4,.8,4.5,3.28a156.83,156.83,0,0,1,3.23,27.79c.08,2.56-1.5,4.72-3.52,4.81Z"/><path class="cls-1" d="M73,196.61a3.09,3.09,0,0,1-1.36-.33c-1.88-.95-2.79-3.66-2-6a197.24,197.24,0,0,0,8.79-47.73c.15-2.55,1.89-4.48,3.92-4.3s3.54,2.4,3.4,5a208,208,0,0,1-9.3,50.51A3.77,3.77,0,0,1,73,196.61Z"/><path class="cls-1" d="M19.78,161.27a3,3,0,0,1-1-.18c-1.95-.7-3.07-3.28-2.51-5.74A90.46,90.46,0,0,0,17.9,127c-.25-2.55,1.18-4.86,3.19-5.18s3.85,1.49,4.09,4a101.94,101.94,0,0,1-1.87,32A3.91,3.91,0,0,1,19.78,161.27Z"/><path class="cls-1" d="M122.61,102.94c-2,0-3.67-2.07-3.67-4.63,0-17.2-6.7-33.28-17.93-43a5.45,5.45,0,0,1-1-6.45c1.14-2.11,3.43-2.65,5.1-1.2,13.23,11.47,21.12,30.41,21.12,50.67C126.28,100.87,124.64,102.94,122.61,102.94Z"/><path class="cls-1" d="M32.85,102.94c-2,0-3.66-2.07-3.66-4.63,0-33.86,21.77-61.4,48.54-61.4a37.52,37.52,0,0,1,5,.32c2,.26,3.49,2.53,3.28,5.08s-2,4.41-4,4.15a33.41,33.41,0,0,0-4.24-.27C55,46.19,36.52,69.57,36.52,98.31,36.52,100.87,34.88,102.94,32.85,102.94Z"/><path class="cls-1" d="M31.7,176.32a3,3,0,0,1-1.28-.29c-1.9-.9-2.86-3.58-2.15-6a110.65,110.65,0,0,0,4.49-31.48,113.2,113.2,0,0,0-1.95-21c-.47-2.49.75-5,2.72-5.59s3.95.94,4.42,3.43a125.17,125.17,0,0,1,2.15,23.12,122.07,122.07,0,0,1-5,34.74A3.81,3.81,0,0,1,31.7,176.32Z"/><path class="cls-1" d="M87.48,196.93a3.5,3.5,0,0,1-3-2,5.46,5.46,0,0,1,.94-6.46c18.51-16.1,30.38-40.74,33.43-69.39.27-2.54,2.11-4.32,4.13-4s3.41,2.68,3.14,5.22c-3.32,31.28-16.3,58.2-36.54,75.8A3.18,3.18,0,0,1,87.48,196.93Z"/><path class="cls-1" d="M51.33,85.55a3.08,3.08,0,0,1-1.7-.53c-1.79-1.18-2.49-4-1.55-6.26C53.87,64.74,65.23,56,77.73,56c8.35,0,16.34,3.92,22.5,11a5.52,5.52,0,0,1,.25,6.55,3.16,3.16,0,0,1-5.19.31c-4.81-5.54-11-8.59-17.56-8.59-9.75,0-18.63,6.8-23.14,17.75A3.68,3.68,0,0,1,51.33,85.55Z"/><path class="cls-1" d="M52.65,147.78c-2,0-3.67-2.08-3.67-4.63a186.2,186.2,0,0,0-4.23-39.21c-.54-2.47.6-5,2.56-5.71s4,.77,4.51,3.24a197.31,197.31,0,0,1,4.5,41.65c0,2.57-1.63,4.65-3.66,4.66Z"/><path class="cls-1" d="M45.67,187.29a3.05,3.05,0,0,1-1.51-.42c-1.85-1.06-2.66-3.81-1.82-6.14a101,101,0,0,0,5-21c.32-2.53,2.21-4.25,4.21-3.83s3.36,2.8,3,5.33A112.43,112.43,0,0,1,49,184.57,3.72,3.72,0,0,1,45.67,187.29Z"/><path class="cls-1" d="M110.62,127h-.24c-2-.16-3.56-2.37-3.43-4.92a100.21,100.21,0,0,0-3.45-31.89c-.67-2.42.33-5.07,2.25-5.92s4,.43,4.67,2.85a112.23,112.23,0,0,1,3.86,35.54C114.15,125.1,112.54,127,110.62,127Z"/><path class="cls-1" d="M58.6,193.46a2.93,2.93,0,0,1-1.48-.41c-1.86-1-2.69-3.78-1.86-6.13a140.49,140.49,0,0,0,4.37-15.12c.56-2.46,2.59-3.88,4.54-3.17s3.07,3.29,2.51,5.75A150,150,0,0,1,62,190.7,3.74,3.74,0,0,1,58.6,193.46Z"/><path class="cls-1" d="M65.56,163.22a3.53,3.53,0,0,1-.56-.05c-2-.39-3.38-2.75-3.08-5.28a131.37,131.37,0,0,0,.75-22.11c-.18-3.52-.5-7.06-1-10.54-.34-2.52,1-4.91,3-5.33s3.88,1.29,4.22,3.82c.49,3.78.84,7.63,1,11.47a143,143,0,0,1-.81,24.07C68.9,161.57,67.34,163.22,65.56,163.22Z"/><path class="cls-1" d="M97.77,132.9c-2,0-3.68-2.08-3.68-4.64,0-15.56-3.42-45-16.36-45-6.55,0-11.89,6.74-11.89,15,0,.28,0,.56,0,.83.12,2.56-1.43,4.75-3.46,4.9s-3.75-1.82-3.86-4.37c0-.46,0-.91,0-1.36C58.51,84.89,67.13,74,77.73,74c17.49,0,23.7,29.24,23.7,54.27C101.43,130.82,99.79,132.9,97.77,132.9Z"/><path class="cls-1" d="M90.76,174.68a3.09,3.09,0,0,1-1.49-.4c-1.85-1.05-2.68-3.79-1.85-6.13a118.29,118.29,0,0,0,5.76-24.75c.31-2.53,2.18-4.27,4.19-3.88s3.37,2.76,3.06,5.3a128.76,128.76,0,0,1-6.31,27.11A3.73,3.73,0,0,1,90.76,174.68Z"/><path class="cls-2" d="M12.48,139.8A3.75,3.75,0,0,1,9.1,137,120.51,120.51,0,0,1,3,98.71c0-2.57,1.64-4.65,3.67-4.65s3.67,2.08,3.67,4.65a109,109,0,0,0,5.53,34.65c.79,2.36-.09,5.08-1.95,6.08A3,3,0,0,1,12.48,139.8Z"/><path class="cls-2" d="M146.71,150.72a3,3,0,0,1-1.56-.44c-1.84-1.1-2.62-3.86-1.76-6.18a106.58,106.58,0,0,0,6.12-26.65c.25-2.54,2.09-4.35,4.1-4s3.43,2.64,3.18,5.19A118.24,118.24,0,0,1,150,148.05,3.72,3.72,0,0,1,146.71,150.72Z"/><path class="cls-2" d="M154.78,103.34c-2,0-3.67-2.07-3.67-4.63,0-35.87-16.88-68.06-43-82-1.87-1-2.74-3.73-2-6.09s2.94-3.46,4.81-2.46c28.84,15.42,47.47,51,47.47,90.58C158.45,101.27,156.81,103.34,154.78,103.34Z"/><path class="cls-2" d="M10.75,72.56a2.92,2.92,0,0,1-1.2-.26c-1.91-.85-2.93-3.49-2.26-5.91C18.15,26.92,47.66.4,80.72.4c2,0,3.67,2.08,3.67,4.64s-1.64,4.64-3.67,4.64c-29.94,0-56.67,24-66.5,59.76A3.86,3.86,0,0,1,10.75,72.56Z"/><path class="cls-2" d="M21.9,112.48c-1.82,0-3.41-1.73-3.63-4.08-.31-3.2-.47-6.46-.47-9.69,0-28.23,12-54.6,31.31-68.82,1.76-1.29,4-.54,5,1.68a5.37,5.37,0,0,1-1.33,6.35C35.74,50.48,25.14,73.77,25.14,98.71c0,2.86.14,5.75.41,8.57.25,2.54-1.19,4.86-3.2,5.16A2.28,2.28,0,0,1,21.9,112.48Z"/><path class="cls-2" d="M117.13,44.23a3.21,3.21,0,0,1-2.26-1C105,33.55,93.23,28.42,80.72,28.42a44.2,44.2,0,0,0-8,.73c-2,.36-3.87-1.39-4.15-3.93s1.1-4.89,3.1-5.26a50.38,50.38,0,0,1,9.09-.82c14.16,0,27.53,5.81,38.67,16.79a5.52,5.52,0,0,1,.63,6.52A3.44,3.44,0,0,1,117.13,44.23Z"/><path class="cls-2" d="M119.68,183a3.23,3.23,0,0,1-2.33-1,5.54,5.54,0,0,1-.51-6.53C135.91,146,145.07,95,127.38,60.52a5.45,5.45,0,0,1,1.09-6.43c1.7-1.39,4-.77,5.07,1.37,9,17.62,12.5,40.71,9.76,65-2.5,22.15-10.07,44.32-20.78,60.83A3.44,3.44,0,0,1,119.68,183Z"/><path class="cls-2" d="M84.51,131.56c-2,0-3.59-2-3.66-4.47a145.13,145.13,0,0,0-3-25.74c-.53-2.48.63-5,2.59-5.68s4,.8,4.49,3.28a155.9,155.9,0,0,1,3.24,27.79c.08,2.56-1.5,4.72-3.52,4.81Z"/><path class="cls-2" d="M76,197a3.09,3.09,0,0,1-1.36-.33c-1.88-1-2.8-3.66-2-6a197.24,197.24,0,0,0,8.79-47.73c.14-2.55,1.89-4.48,3.92-4.3s3.54,2.4,3.4,5a208.52,208.52,0,0,1-9.3,50.51A3.78,3.78,0,0,1,76,197Z"/><path class="cls-2" d="M22.77,161.67a3,3,0,0,1-1-.18c-2-.7-3.07-3.28-2.52-5.74a90.16,90.16,0,0,0,1.65-28.34c-.25-2.55,1.18-4.86,3.19-5.18s3.85,1.49,4.09,4a101.94,101.94,0,0,1-1.87,32A3.91,3.91,0,0,1,22.77,161.67Z"/><path class="cls-2" d="M125.6,103.34c-2,0-3.67-2.07-3.67-4.63,0-17.2-6.7-33.27-17.93-43a5.45,5.45,0,0,1-1-6.45c1.14-2.11,3.43-2.65,5.1-1.2,13.22,11.47,21.12,30.41,21.12,50.67C129.27,101.27,127.63,103.34,125.6,103.34Z"/><path class="cls-2" d="M35.84,103.34c-2,0-3.67-2.07-3.67-4.63,0-33.86,21.78-61.4,48.55-61.4a37.63,37.63,0,0,1,5,.32c2,.26,3.49,2.53,3.28,5.08s-2,4.41-4,4.15a33.41,33.41,0,0,0-4.24-.27C58,46.59,39.51,70,39.51,98.71,39.51,101.27,37.87,103.34,35.84,103.34Z"/><path class="cls-2" d="M34.69,176.72a3,3,0,0,1-1.28-.29c-1.9-.9-2.86-3.58-2.15-6A110.65,110.65,0,0,0,35.75,139a113,113,0,0,0-2-21c-.47-2.5.74-5,2.71-5.6s4,.94,4.43,3.43A125.17,125.17,0,0,1,43.09,139a122.07,122.07,0,0,1-5,34.74A3.81,3.81,0,0,1,34.69,176.72Z"/><path class="cls-2" d="M90.47,197.33a3.52,3.52,0,0,1-3-2,5.48,5.48,0,0,1,1-6.46c18.51-16.1,30.38-40.74,33.43-69.39.27-2.54,2.11-4.32,4.13-4s3.41,2.68,3.14,5.22c-3.32,31.28-16.3,58.2-36.54,75.8A3.18,3.18,0,0,1,90.47,197.33Z"/><path class="cls-2" d="M54.32,86a3.08,3.08,0,0,1-1.7-.53c-1.79-1.18-2.49-4-1.55-6.26,5.79-14,17.15-22.74,29.65-22.74,8.35,0,16.33,3.92,22.5,11a5.52,5.52,0,0,1,.24,6.55,3.15,3.15,0,0,1-5.18.31c-4.81-5.54-11-8.59-17.56-8.59-9.75,0-18.63,6.8-23.14,17.75A3.68,3.68,0,0,1,54.32,86Z"/><path class="cls-2" d="M55.64,148.18c-2,0-3.67-2.08-3.67-4.63a186.2,186.2,0,0,0-4.23-39.21c-.55-2.47.6-5,2.55-5.71s4,.77,4.52,3.24a197.31,197.31,0,0,1,4.5,41.65c0,2.57-1.64,4.65-3.66,4.66Z"/><path class="cls-2" d="M48.66,187.69a3.05,3.05,0,0,1-1.51-.42c-1.85-1.06-2.66-3.81-1.82-6.14a100.37,100.37,0,0,0,5-21c.33-2.53,2.22-4.25,4.22-3.83s3.35,2.8,3,5.33A112.43,112.43,0,0,1,52,185,3.72,3.72,0,0,1,48.66,187.69Z"/><path class="cls-2" d="M113.6,127.39h-.23c-2-.16-3.56-2.37-3.43-4.92a100.21,100.21,0,0,0-3.46-31.89c-.66-2.42.34-5.07,2.25-5.92s4,.43,4.68,2.85A112.23,112.23,0,0,1,117.27,123C117.14,125.5,115.53,127.39,113.6,127.39Z"/><path class="cls-2" d="M61.59,193.86a3,3,0,0,1-1.49-.41c-1.85-1-2.68-3.78-1.85-6.13a138.67,138.67,0,0,0,4.36-15.11c.57-2.47,2.6-3.89,4.55-3.18s3.07,3.29,2.5,5.75A147.78,147.78,0,0,1,65,191.1,3.74,3.74,0,0,1,61.59,193.86Z"/><path class="cls-2" d="M68.54,163.62a3.51,3.51,0,0,1-.55-.05c-2-.39-3.38-2.75-3.08-5.28a132.43,132.43,0,0,0,.75-22.11c-.18-3.52-.5-7.06-1-10.54-.34-2.52,1-4.91,3-5.33s3.88,1.29,4.22,3.82c.49,3.78.84,7.63,1,11.47a142,142,0,0,1-.82,24.07C71.89,162,70.33,163.62,68.54,163.62Z"/><path class="cls-2" d="M100.75,133.3c-2,0-3.67-2.08-3.67-4.64,0-15.56-3.42-45-16.36-45-6.55,0-11.89,6.74-11.89,15,0,.28,0,.56,0,.83.12,2.56-1.43,4.75-3.46,4.9s-3.75-1.82-3.86-4.37c0-.46,0-.91,0-1.36,0-13.42,8.63-24.32,19.23-24.32,17.49,0,23.7,29.24,23.7,54.27C104.42,131.22,102.78,133.3,100.75,133.3Z"/><path class="cls-2" d="M93.75,175.08a3.06,3.06,0,0,1-1.49-.4c-1.85-1.05-2.68-3.79-1.85-6.13a118.29,118.29,0,0,0,5.76-24.75c.3-2.53,2.18-4.27,4.18-3.88s3.38,2.76,3.07,5.3a129.24,129.24,0,0,1-6.31,27.11A3.74,3.74,0,0,1,93.75,175.08Z"/></g></g></svg>