<svg xmlns="http://www.w3.org/2000/svg" viewBox="0 0 1497.42 524.67"><defs><style>.cls-1{fill:#fff;}</style></defs><title>Asset 4</title><g id="Layer_2" data-name="Layer 2"><g id="Layer_1-2" data-name="Layer 1"><path class="cls-1" d="M199.94,120.68c6.73,10.3,17.66,13.76,29,17.6a41.76,41.76,0,0,1-2.28,3.6,266.88,266.88,0,0,0-35.57,59.9c-2,4.73-4.12,5.55-8.85,3.56-12.34-5.19-24.13-11.19-34.14-20.28l-.88,1c4.19,4.12,8,8.81,12.67,12.23a186.12,186.12,0,0,0,21.2,13c3.43,1.85,4.62,3.28,3.11,7.23a276.79,276.79,0,0,0-16.85,67c-.23,2-.22,4-.42,6-.18,1.79-.5,3.56-.94,6.55l-29.4-14.24-.54.7c6,4.09,11.51,9.34,18.08,12,10.51,4.25,12.8,11.2,12.12,21.67-.93,14.27,1.6,28.38,5.42,43.59V306.32c1.85.5,3.24.75,4.54,1.26a220.86,220.86,0,0,0,70.91,14.92c4.24.2,5.88,2,5.93,6.16.25,20,.54,40,1.05,59.93.11,4.45-1.49,6.06-5.8,5.66-13.73-1.29-27.47-2.48-41.21-3.71a4.23,4.23,0,0,0-3.17.68c2.65.8,5.28,1.69,8,2.37a81.23,81.23,0,0,0,8.75,1.89c9.71,1.37,19.42,2.79,29.17,3.77,3.61.36,5.1,1.75,5.08,5.2,0,6.12,0,12.23,0,18.73a104.58,104.58,0,0,1-36.75-4.53C152.37,398.86,111.34,355,96.92,288.36c-10.76-49.69,3.33-94.93,34-134.89,24.51-32,57-51.54,96.7-58.53,21.95-3.86,44.05-3.92,65.83,1.73a40.35,40.35,0,0,1,11.79,5.12c9.23,6,9.31,16.32-.36,21.56a85.44,85.44,0,0,1-22.77,8.21,128.55,128.55,0,0,1-62.2-1.9C213,127.73,206.75,123.81,199.94,120.68Z"/><path class="cls-1" d="M429.27,484.1c-2.9,2.48-5.51,5-8.39,7.14-28,20.92-64.3,22.39-95.24,3.76-8.55-5.15-16.81-10.78-25.29-16-7.65-4.75-15.85-7.73-25.08-6.71a30.66,30.66,0,0,0-3.44.52c-.43.1-.79.54-1.68,1.18A223,223,0,0,1,332,515.66l-11.23,8.65c-8.32-7.94-15.66-16.25-24.32-22.85-10.8-8.23-22.69-15-34.09-22.48-3.25-2.12-6.15-1.9-9.7-.1a178.69,178.69,0,0,0-55.88,43.7c-.52.61-1.11,1.17-2,2.09l-11.8-9a217.94,217.94,0,0,1,61.64-41.57l-.22-1.28c-5.12,0-10.71-1.32-15.27.29a114.21,114.21,0,0,0-23.06,11.44c-13.8,8.77-27.37,17.75-43.69,21.32-29.77,6.51-55-2.21-77.34-22.23,8.25,2.42,16.05,5.38,24.12,6.92,15.7,3,31,1,46-4.69,16.45-6.24,32.95-12.47,49.77-17.56a81.07,81.07,0,0,1,42-1c8.4,1.94,16.44.69,24.7-.75,19.21-3.34,37.81,0,55.9,6.52,10.32,3.71,20.44,8,30.63,12,22.9,9.15,45.65,9.42,68.25-1a11.18,11.18,0,0,1,1.85-.59C428.44,483.59,428.61,483.76,429.27,484.1Z"/><path class="cls-1" d="M252.76,270.43c0,11.81,0,23.63,0,35.44,0,6.37-.71,7.58-7.23,7-15.19-1.33-30.38-2.93-45.45-5.24-8.14-1.25-16-4.22-24-6.3-2.94-.76-4-2.37-3.7-5.4,3-26.14,8.18-51.74,17.63-76.39,1.09-2.86,2.4-3.32,5.25-2.37a188.51,188.51,0,0,0,50.7,9.66c6.18.3,7,1.41,7,7.65q0,18,0,35.95Z"/><path class="cls-1" d="M262.24,270.06c0-12.15.08-24.31,0-36.46,0-4.09,1.35-6,5.71-6.25,18-1,35.69-3.42,52.78-9.34,3.23-1.12,4.33.91,5,3.25,4.49,16.81,9,33.62,13.25,50.5,1.37,5.45,2,11.1,2.86,16.67.93,5.79-.24,8.11-5.48,10.12-22.4,8.56-45.68,12.73-69.57,13.93-4.34.22-4.38-2.46-4.38-5.46q0-18.48,0-37Z"/><path class="cls-1" d="M262,367.48c0-12.81.13-25.63-.07-38.44-.07-4.78,1.94-6.42,6.51-6.5a226.82,226.82,0,0,0,68.93-12.1c5.47-1.84,6.52-1.06,6.62,4.6.3,18.16-.09,36.24-3.93,54.12-1.14,5.29-3.71,8.27-8.84,10.16a231.57,231.57,0,0,1-65,14.15c-4.4.29-5.81-1-5.49-5.54.47-6.79.12-13.64.12-20.46Z"/><path class="cls-1" d="M1093.51,194.84V176.52h48c-.48,11,.15,21.74-1.68,32.06-2.37,13.39-12.1,21.29-24.87,24.58-18.22,4.7-35.44,2.73-49.85-10.73-6.65-6.21-9.67-14.26-9.76-23.3-.13-12,0-24,0-36,0-23.82,15.5-40.23,39.37-41.59,11-.63,21.61.78,31.25,6.63a30.54,30.54,0,0,1,14.57,31.65h-17.55c-1.11-3.69-1.55-7.51-3.32-10.55-5-8.6-13.65-10.3-22.57-9.63-14.37,1.09-21.73,9.51-21.84,24-.07,10.33,0,20.66,0,31,0,9.7,4.25,16.77,13.28,20.31,9.69,3.8,19.36,3.76,27.8-3.2,5-4.12,6-10.08,5.69-16.89Z"/><path class="cls-1" d="M644.5,192.28V233H624.55V124.22c.34-.22.61-.55.88-.55,17.62.2,35.37-.82,52.82,1,18.89,2,29.13,16.94,27.79,36.74-1.18,17.43-15.13,30.48-33.23,30.85C663.67,192.44,654.53,192.28,644.5,192.28Zm12.93-16.51c5.29-.45,10.67-.44,15.85-1.45,8.66-1.7,13.31-8.41,12.91-17.53-.38-8.81-5-14.54-13.89-15.47-8.24-.86-16.59-.76-24.9-.73-1,0-2.76,2.13-2.82,3.34-.3,6.14-.15,12.31-.15,18.47C644.44,175.39,644.44,175.39,657.43,175.77Z"/><path class="cls-1" d="M1292.76,123.79h18.17v39.86c9.15-9.74,19.38-12,30.83-9.36,12.84,3,21.37,12.46,22.08,25.67a182.81,182.81,0,0,1-.57,30.4c-1.33,11.62-8.75,19.26-19.82,22.76-11.25,3.56-22,3.18-31.07-5.86a17.26,17.26,0,0,0-1.82-1.28l-.68,7h-17.13Zm52.48,70.91h0c0-2.83,0-5.67,0-8.5-.14-10.44-6.42-16.75-16.81-16.89-9.87-.14-17,6.66-17.35,16.75q-.29,9,0,18c.28,9.26,7.31,15.4,17.36,15.43s16.33-5.78,16.75-15.29C1345.36,201,1345.25,197.86,1345.25,194.69Z"/><path class="cls-1" d="M1444.74,233.1H1426.9l-1.08-5.59a6.66,6.66,0,0,0-1.78.75c-10.59,9.24-22.7,8.7-34.79,4.56-9.28-3.17-13.64-10.68-14-20.47-.35-10.74,4.77-18.3,14.31-22.44a45.29,45.29,0,0,1,14.49-3.07c6.78-.5,13.62-.13,20.35-.13,2.55-9.73-.47-16.39-8-18.2-11.19-2.69-19.06.86-21,9.77-4.4,0-8.88,0-13.36,0-.8,0-1.6-.16-2.65-.27-.69-8.21,1.92-14.94,8.91-18.82,15.11-8.39,30.69-7.9,45.8,0,7.11,3.69,9.64,10.71,9.7,18.53.1,14.49.11,29,.24,43.47C1444.12,224.95,1444.49,228.75,1444.74,233.1Zm-19.63-33.21c-8.56.44-16.53.54-24.43,1.36-4.47.46-6.93,3.86-7.24,8.33-.3,4.19,1.37,7.74,5.37,9.29,7.13,2.77,14.48,3,21.06-1.34C1425.83,213.56,1425.34,207.1,1425.11,199.89Z"/><path class="cls-1" d="M763.94,186.71c1.06-12.71-1.82-17.42-10.74-18.51-11.71-1.43-17.18,1.42-18.48,9.85H718.57q-1.4-11.5,7.69-18.24c11.73-8.72,36.71-8.57,48.36.2,5.94,4.47,8.19,10.68,8.23,17.88.08,14.32.09,28.64.23,43,0,4,.42,8,.65,12.17H765.79l-1.08-6.34c-7.23,7.61-15.83,8.92-25.08,8.64-14.12-.43-24.39-8.86-25.33-21.22-1-13.62,7.36-24.3,21.58-26.52,6.2-1,12.6-.66,18.91-.86C757.76,186.63,760.72,186.71,763.94,186.71Zm.18,13.12c-8.71.49-16.85.63-24.89,1.54-4.24.48-6.49,3.92-6.8,8.16s1.33,7.74,5.33,9.31c7.13,2.8,14.46,3,21.05-1.29C764.82,213.6,764.32,207.13,764.13,199.83Z"/><path class="cls-1" d="M930.6,195.21c0-4.82-.67-9.76.12-14.44,3.12-18.44,21.55-30.12,41.42-26.94,16.87,2.7,31.29,14.85,30,35.41-.39,6,.38,12-.38,17.95-2,15.73-15.73,27.27-32.92,27.77a57.13,57.13,0,0,1-15.76-1.8c-14.77-3.83-22.74-14.65-22.75-30q0-4,0-8Zm52.58-.94h0c0-3.5.18-7,0-10.49-.54-8.72-7.42-14.43-17.18-14.46-9.52,0-16.29,5.46-16.76,14.18a214.77,214.77,0,0,0,0,21.49c.4,8.73,7.47,14.46,17.17,14.48,9.52,0,16.12-5.48,16.77-14.21C983.41,201.62,983.19,197.94,983.19,194.28Z"/><path class="cls-1" d="M1274.69,194.1c0,4.65.64,9.41-.11,13.94-3,17.74-20.63,29.58-40.11,26.72a57.74,57.74,0,0,1-16.52-5.08c-8.3-4-13.47-11.22-14.25-20.38a146.06,146.06,0,0,1,0-27.91c1.56-14.45,12.38-24.24,28.4-27.39,16.66-3.27,34.88,5.07,40.35,19.56,2.4,6.34,2.46,13.57,3.58,20.39Zm-18.49.38h.05c0-3.33.12-6.67,0-10-.38-9.14-7.07-15-17-15.15s-16.68,5.6-17,15c-.27,6.82-.28,13.67,0,20.49.38,8.79,7.29,14.58,17,14.68s16.41-5.5,17-14.5C1256.4,201.49,1256.2,198,1256.2,194.48Z"/><path class="cls-1" d="M369.84,189.34c5.59,12.35,11.14,23.64,15.82,35.28,3.27,8.13,5.42,16.71,7.93,25.13,1.83,6.12.78,11.52-4.57,15.6-9.12,7-18.05,14.17-27.4,20.81-6.13,4.35-7.33,3.52-8.4-4A298,298,0,0,0,337.61,220c-2.65-7.1-2.3-6.89,4-10.83,8-5,15.57-10.7,23.32-16.11C366.12,192.23,367.25,191.3,369.84,189.34Z"/><path class="cls-1" d="M245.34,219l-46.51-8.22c-4-.71-4.53-2.6-2.91-6.33a307.72,307.72,0,0,1,35.27-61.75c2-2.7,3.84-3.43,7.08-2.72a58,58,0,0,0,12.83,1.54c4.23,0,4.89,1.67,4.73,5.4-.9,21.11-1.6,42.22-2.32,63.33-.23,6.89-.86,7.55-8,7.48Z"/><path class="cls-1" d="M260.33,142.38c8.07-.74,15.47-1.51,22.9-2,1-.07,2.35,1,3,1.94,13.16,18.48,23.32,38.6,32.11,59.45,1.34,3.17.69,5.25-2.92,6.42-15.69,5.11-31.66,8.59-48.21,9.13-3.07.1-5.24-.52-5.32-4.18C261.4,189.71,260.87,166.29,260.33,142.38Z"/><path class="cls-1" d="M1028.05,356.34c18.86,7.27,25.91,20.86,20.11,37.55-4.07,11.72-13.18,18-24.8,18.73-15.7,1-31.53.26-47.58.26V303.52c9.67,0,19.12-.08,28.56,0,6.65.08,13.39-.22,19.91.78,12.89,2,20.43,9.47,21.91,20.52C1048,339,1042.93,349.15,1031,355,1030.27,355.32,1029.55,355.64,1028.05,356.34Zm-42.82,48.06c12.71,0,25,.84,37.18-.25,10.84-1,17.42-9.55,17.81-20.14s-5.15-19.54-15.79-21.09c-12.83-1.86-26-1.56-39.19-2.21Zm.09-51.42a11.43,11.43,0,0,0,1.6.34c7.31,0,14.63.27,21.93,0a57.36,57.36,0,0,0,13.73-1.84c10.16-3,15.45-11.18,14.57-21.53-.84-9.88-7-16.77-17.74-17.59-11.05-.85-22.21-.32-33.32-.35-.25,0-.49.39-.78.63Z"/><path class="cls-1" d="M852.5,203.89h17.32c.61,9.73-2.53,17.67-9.94,23.74-14,11.53-39.17,10-51.88-3a27.67,27.67,0,0,1-8.08-19.82q-.05-8.74,0-17.49c.09-19,13.29-32.78,32.27-33.78,8.31-.44,16.26.78,23.58,5,9.59,5.53,14.71,15,14.09,26.66H852.47c-.25-1.23-.49-2.5-.76-3.76-1.82-8.38-7.89-12.63-17.36-12.17-8.41.41-14.5,5.62-15,13.78a181.44,181.44,0,0,0,0,22.47c.5,8.38,6.85,13.68,15.89,14.1s14.67-3.75,16.57-12.38C852,206.26,852.18,205.29,852.5,203.89Z"/><path class="cls-1" d="M362.47,465c6.63-1.15,13.22-2.72,19.89-3.37,13.23-1.3,26.51-2.06,39.77-3.1,12.66-1,25.17-3,36.85-8.15,6.42-2.84,12.4-6.68,18.31-9.93-8.13,13.27-20,23-34.33,30-23.67,11.59-48.24,11.08-73.15,5.49-11-2.47-22-5.42-33-7.94-3.49-.8-7.13-.91-10.71-2,5.35-1.44,10.73-2.81,16.06-4.34A73.76,73.76,0,0,0,370.34,446q20.56-17.82,41.31-35.42c2.14-1.82,4.6-3.25,8-5.61-1.05,2.15-1.51,3.24-2.1,4.26-5.83,10.08-11.74,20.12-17.5,30.24-7,12.37-17.88,19.37-31.4,22.72-2.16.54-4.31,1.11-6.46,1.66Z"/><path class="cls-1" d="M192.81,466.1c-29.56,3.87-56.71,16.56-86.26,13.2-25.36-2.89-46.82-13.36-62.77-33.85-.92-1.18-1.72-2.45-2.54-3.7a15.83,15.83,0,0,1-.82-2c21.37,16.27,45.81,18.35,70.78,19.55,14.22.68,28.34,3.53,42.5,5.4a2,2,0,0,0,2.08-.76c-2-.56-3.89-1.22-5.88-1.67-14.39-3.25-25.52-10.85-32.83-23.89-5.89-10.5-12-20.85-18.08-31.27l1.18-1.11c6.08,4.72,12.34,9.24,18.2,14.22,8.49,7.22,16.9,14.57,25,22.24,12.2,11.58,26.58,18.64,42.93,22C188.14,464.86,190,465.39,192.81,466.1Z"/><path class="cls-1" d="M670,367.93l32.53,44.78c-6.87,1.57-11.48.41-15.45-5.69-7.91-12.12-16.71-23.68-25.43-35.24a9.72,9.72,0,0,0-6.38-3.34c-6.46-.44-13-.16-20-.16V413h-9.48V304.34c15.55,0,30.92-1.15,46,.32,15.86,1.54,25.73,13.62,26.24,28.56.6,17.68-7.4,28.94-23.77,33.44C673.06,367,671.84,367.39,670,367.93Zm-34.52-55.39v47c11.08,0,21.75.69,32.3-.18,13.05-1.07,20.08-9.45,20.56-22.57.48-12.93-6.17-22.5-18.94-24C658.34,311.51,647,312.54,635.52,312.54Z"/><path class="cls-1" d="M346.59,372.34c7-21.75,8.88-42.66,8.91-63.86a9.13,9.13,0,0,1,3.45-6.58c13-8.58,26.19-16.77,39.51-25.2.38,3.06,1.33,7.07,1.3,11.09-.08,11.8,0,23.64-1,35.38-1,11-7.59,19.19-15.94,26.11A175,175,0,0,1,346.59,372.34Z"/><path class="cls-1" d="M921.88,217.55v15.83c-7.34,0-14.67.9-21.68-.22-9-1.44-13.84-8.38-13.9-17.55-.09-13.5,0-27,0-40.49v-5.85H875.77V154.52h10.4V130.87H904.7v23.42h17v14.81H904.86c0,5.46,0,10.38,0,15.3,0,8-.07,16,0,24,.09,7.65,1.92,9.31,9.62,9.15C916.81,217.51,919.11,217.55,921.88,217.55Z"/><path class="cls-1" d="M410,449.07c15.6-16.7,19-38.13,25.3-58.32,4.4-14,11.81-26.48,20.09-38.49-2.44,15.43-4.74,30.67-7.28,45.86A64.49,64.49,0,0,1,432.34,431a10,10,0,0,0-2.56,4.51c2-1.54,3.93-3.13,6-4.61,9.37-6.84,18.48-14.08,28.21-20.36,10.06-6.49,21-11.77,28.88-21.09,3.71-4.37,6.76-9.31,10.57-14.64a81.28,81.28,0,0,1-13.66,31.41c-14.35,20.72-32.81,35.05-58.73,38.17C424.15,445.2,417.45,447.37,410,449.07Z"/><path class="cls-1" d="M62.28,352.19C70.83,364.55,78.6,377.74,83,392.68c2.27,7.65,4.41,15.33,6.73,23,3.7,12.19,8.77,23.68,18.2,33.56-13.57-3.2-26.63-5.58-39.25-9.41-19.75-6-32.29-21-43.22-37.46A75.14,75.14,0,0,1,14.23,374.7c.46.12.83.12.9.26,6.54,13.81,17.41,23.32,30.45,30.65,13.94,7.84,27.85,15.7,39,27.51a23.61,23.61,0,0,0,3.61,2.62c.21-.47.49-.88.42-.95-13.53-13.51-18.92-30.45-21.13-48.91C66.11,374.55,64,363.3,62.28,352.19Z"/><path class="cls-1" d="M292.11,139c6.35-2.69,12.36-5.37,18.49-7.72a5.69,5.69,0,0,1,4.49.57,169.8,169.8,0,0,1,44.38,43.26c2.19,3.07,1.95,6.1-1.12,8.3-7.94,5.7-16,11.24-24.07,16.75-3.21,2.19-4.49,0-6-2.62-8.9-15.53-17.86-31-27.06-46.39C298.64,146.78,295.16,143,292.11,139Z"/><path class="cls-1" d="M838.38,412.88v-13.3c-2.79,3.35-4.68,6.28-7.19,8.52-9.15,8.15-19.73,9.38-30.7,4.68-10.62-4.55-14.38-13.58-14.23-24.7.13-9-.09-18,.06-27,.19-11.52,6.45-20.73,16.43-24.59,11.1-4.29,23.31-2,30.48,5.82a82.43,82.43,0,0,1,4.91,6.69V303.83h8.57V412.88Zm-43.32-37.62h.09c0,4.82-.22,9.66,0,14.47.47,8.43,5.67,14.63,13.79,17,9.7,2.78,19.41-1,25.07-9.73,5.87-9.06,6.17-35.22.5-44.37a22.22,22.22,0,0,0-24.66-9.76c-9.54,2.65-14.64,9.65-14.83,20.46C795,367.28,795.06,371.28,795.06,375.27Z"/><path class="cls-1" d="M1463.49,123.8h18.57V129q0,39,0,77.94c0,10.91.83,11.73,11.55,11.5,1,0,2,0,3.78,0,0,4.09.12,8-.1,11.91a3.12,3.12,0,0,1-2,2.23c-6.08.55-12.31,1.79-18.25,1-9.11-1.21-13.47-8.08-13.5-19.21-.07-26,0-52,0-77.94C1463.49,132.31,1463.49,128.19,1463.49,123.8Z"/><path class="cls-1" d="M1160.49,123.79h18.56V129q0,39,0,77.94c0,10.9.82,11.72,11.56,11.49,1,0,2,0,3.77,0,0,4.1.12,8-.1,11.92a3.12,3.12,0,0,1-2,2.22c-6.08.55-12.31,1.79-18.25,1-9.1-1.21-13.46-8.09-13.49-19.21-.06-26.31,0-52.62,0-78.94C1160.49,131.64,1160.49,127.85,1160.49,123.79Z"/><path class="cls-1" d="M1175,413h-7.42l-1-10.84c-8.94,13-20.93,14.82-34.09,12.16-10.3-2.08-16.66-9.39-17.19-18.74-.63-11,4.13-18.94,14.31-22.54a47.68,47.68,0,0,1,13.13-2.43c7.3-.41,14.64-.15,22-.19a3.18,3.18,0,0,0,.91-.28c2.43-18-.78-25.06-11.63-27.61-15.19-3.58-24.77,1.86-27.52,15.3h-6.67c-1.58-8.48,1.44-15.46,9.12-19.26,11.51-5.69,23.47-5.84,35.24-.81a16.84,16.84,0,0,1,10.72,15.66C1175.24,373.18,1175,392.95,1175,413Zm-9.09-35.71c-8.27,0-16.08-.16-23.87.08a31.13,31.13,0,0,0-8.71,1.74c-5.62,1.87-8.52,6.11-9.12,11.91s1.36,10.5,6.14,13.85c13.22,9.26,32.76,1.43,35.45-14.38C1166.51,386.33,1165.91,382,1165.91,377.29Z"/><path class="cls-1" d="M873.25,376.18c-.64,12-.69,22.94,11.14,29,10.35,5.28,21.64,2.81,32.69-7.05l6.26,3.94c-3.45,5.85-8.45,9.23-14.38,11.22a41.2,41.2,0,0,1-26.47.06c-10.73-3.51-17.12-11.19-18.06-22.22a176.76,176.76,0,0,1,0-30.4c1.49-17,15.8-27.37,34.6-26.17,15.52,1,25.92,12.62,26,29.15,0,4,0,7.94,0,12.48Zm42.93-6.39c.45-10-.42-19.18-9.46-24.68-7.7-4.69-16.06-4.65-23.61.31-8.56,5.61-10.5,14.38-9.93,24.38Z"/><path class="cls-1" d="M773.06,376.39H721.67c-2.29,13.77,1.24,23.65,9.89,28.33,10.58,5.72,22,3.54,33.54-6.61l6.28,4a25.71,25.71,0,0,1-14.47,11.22,41.29,41.29,0,0,1-26,.17c-11.19-3.53-17.64-11.41-18.55-22.89a187.67,187.67,0,0,1,0-29.41c1.34-17,15.28-27.52,34.21-26.63,15.73.74,26.37,12.48,26.49,29.22C773.08,367.72,773.06,371.69,773.06,376.39Zm-9.2-6.51c1.38-11.81-2.07-20.78-9.38-25.07s-18-3.86-24.51,1.32c-7.58,6.05-9.45,14.27-8.72,23.75Z"/><path class="cls-1" d="M405.78,241.64C401,224.17,395.16,207,385.37,191.72c-5.44-8.49-7.87-15.92-3.12-25.54,2.23-4.52,1.94-10.28,2.9-16.11,2.15,2.48,4.3,4.84,6.32,7.32a134.6,134.6,0,0,1,22.25,39.77c3.24,9,3.55,17.77.36,26.69-2.16,6-4.53,12-6.8,18Z"/><path class="cls-1" d="M1243.3,342.18c-3.41,4.74-6.2,5.67-11.13,2.72a26.73,26.73,0,0,0-22.21-2.36c-6.08,1.91-9.83,6.84-9.88,12.43-.06,5.38,2.88,9.42,9.39,11.44s13.54,3.38,20.3,5.14c8.56,2.22,15.51,6.35,17.13,15.95S1244,406,1235.34,411.06c-13.6,7.91-36.08,4.82-47.22-6.9l6-5.26c6.17,5.72,13.21,9.27,21.28,9.09a40.15,40.15,0,0,0,14.83-3.21c5.42-2.36,7.82-7.36,7.41-13.52s-4.16-9.66-9.72-11.21c-6.4-1.78-13-3-19.37-4.71-12-3.2-17.61-9.76-17.23-20s7.47-17.8,18.88-20.1a43.24,43.24,0,0,1,23.61,1.72C1237.12,338.2,1240.09,340.39,1243.3,342.18Z"/><path class="cls-1" d="M259.11,422.78c.42-6.91.69-13.55,1.36-20.14a4.4,4.4,0,0,1,3.1-2.93c23.42-.33,46.11-4.82,68.46-11.48a15.5,15.5,0,0,1,3,.15c-4.45,7.73-8.47,14.81-12.63,21.81a5,5,0,0,1-2.48,1.52c-18.87,7.37-38.37,11.55-58.69,11.52A13.91,13.91,0,0,1,259.11,422.78Z"/><path class="cls-1" d="M318.3,125.24c4.71-5.94,6.83-12,3.85-20,4,1.73,7.22,2.73,10,4.47,10.56,6.53,21.43,12.68,31.31,20.14,11.21,8.47,11.14,20.68,8.1,33.14a7.77,7.77,0,0,1-1.07,2.22,20.69,20.69,0,0,1-1.89,2.09C354.2,150.66,337.89,136.48,318.3,125.24Z"/><path class="cls-1" d="M458,404.08c3.86-17.45,6.86-33.65,15.22-48.45,7.81-13.82,14.36-28.35,21.18-42,4.11,7.76,2.85,35.31-2.18,50.41C486.35,381.81,470.66,390.72,458,404.08Z"/><path class="cls-1" d="M23.06,313.15c7.17,14.31,14.51,29.69,22.51,44.71,5.71,10.72,9,22.09,11.41,33.84.79,3.87,1.72,7.71,2.64,11.84C25.84,378,12.51,343.87,23.06,313.15Z"/><path class="cls-1" d="M409,85.09c8.7-3.94,16.79-7.33,24.6-11.26,3.76-1.9,6.22-1.61,8.93,1.62,1.75,2.08,4.3,3.5,6.11,6.31-8.88-2.59-11.58,4.36-15.82,8.4-3.5,3.33-6.78,6.89-10.16,10.34-5,5.14-5,5.14-3.88,11.42l-11.58-13-1.33,1.27c.19-.24.49-.73.56-.7,5.39,2.34,8-1.5,11-4.77,3.89-4.27,7.88-8.45,11.18-13.65l-31.54,14,9.31-33.68-1-.57c-5.1,6.39-10.27,12.73-15.21,19.23-.53.7.24,2.4.44,3.63.18,1.07.41,2.13.91,4.69l-13.27-9.67c.51-.63.79-1.08.87-1.05,5.13,2.27,7.78-.92,10.54-4.48,4-5.14,8.23-10.05,12.34-15.08,2.93-3.58,7.76-6.62,2.12-12.69l2-.47c3.48,2.57,7.09,5,10.33,7.84.7.62.37,2.83,0,4.17-2.17,8-4.5,16-6.74,24C409.54,82.05,409.41,83.15,409,85.09Z"/><path class="cls-1" d="M1320.24,406.44c1.64,4.79.24,6.77-4.34,7.54-15.6,2.62-23.61-3.95-23.61-19.76q0-42.23,0-84.47c0-1.82,0-3.64,0-5.85h8.77v5q0,41,0,82c0,13.62,2.59,16.12,16.07,15.57C1318.1,406.41,1319.09,406.44,1320.24,406.44Z"/><path class="cls-1" d="M1073.85,413.05h-8.29V336.82h8.36v14.38c14.19-14.57,19.93-17.13,33.77-15.2v8a84.15,84.15,0,0,0-9.18,0c-15.25,1.68-24,11-24.35,26.42-.3,12.65-.08,25.31-.11,38C1074,409.92,1073.92,411.38,1073.85,413.05Z"/><path class="cls-1" d="M146.29,24.5c7.67-3,15.25-6.35,23-9.06,5.11-1.77,10,.13,12.36,3.89,2.5,3.92,1.87,8.2-1.87,12.76-.48.59-1,1.15-1.92,2.22,1.49.07,2.26.12,3,.13,6,.08,9.39,2.21,10.85,6.87,1.63,5.23,0,10.47-5.25,13.26-7.43,3.95-15.25,7.17-22.9,10.71-.37-.79-.68-1.29-.61-1.35,4.22-3.73,2.69-7.59.66-11.81-2.8-5.84-5.09-11.92-7.67-17.87-1.84-4.24-2.49-9.85-10.38-7.58Zm28.57,32.14c4.88-1.71,9.43-3.47,9.1-8.59a13.41,13.41,0,0,0-4.59-8.61c-3.44-2.75-7.5-1-11.2,1.45Zm-7.88-19A41.17,41.17,0,0,0,170.77,36a9,9,0,0,0,.89-15.05c-3.2-2.41-6.58-1.66-9.17.48-1,.8-.54,4,.05,5.8C163.65,30.63,165.34,33.87,167,37.64Z"/><path class="cls-1" d="M8,198.52c-.08-10.2,2.79-14.55,10.23-17.16,8.86-3.11,17.72-6.19,28-9.77-8.23-3-15.11-5.79-22.22-7.77-1.57-.44-4,2.09-7.35,4.05l5.75-15.51,1.91-.51c-2.12,7.82,3.33,8.31,7.74,9.89,9.83,3.54,19.65,7.13,30.85,11.21-2.19,1.64-3.48,3.14-5.09,3.71-11.12,3.92-22.3,7.63-33.46,11.44-1.23.42-2.42,1-4.59,1.87,9.36,3.06,17.79,5.89,26.29,8.5.94.29,2.34-.59,3.4-1.15s1.92-1.41,3.84-1.46l-4.42,13.39a5.51,5.51,0,0,1-1.26-.28c-.28-5.24-3.72-6.87-8.24-8-6.26-1.61-12.38-3.81-18.5-5.95C16.17,193.36,11.54,190.94,8,198.52Z"/><path class="cls-1" d="M366.46,24.39c12.71,0,22.77,9,22.72,20.27-.06,12.84-11.34,24.52-23.58,24.42S344.13,60,344.24,48.64C344.37,35.44,354.53,24.35,366.46,24.39Zm15,18.23C381.57,35,379,31,373.71,28.94c-4.77-1.86-9.6-.58-13.42,3.83a32,32,0,0,0-7.93,19c-.33,4.81,1,9.42,5.74,11.89,4.56,2.39,8.79.89,12.47-2.15C377,56.19,380.79,49.41,381.46,42.62Z"/><path class="cls-1" d="M106.92,58.54C107,47.21,118.37,36.45,130,36.73c10.94.26,20.79,11.92,20.86,24.7.06,11.45-10.36,21.94-21.68,21.83S106.85,71,106.92,58.54Zm6.14-4.8C113,62.63,123.37,75.54,132,77.29c6,1.22,11.19-2.59,12.09-8.9,1.24-8.72-7-22.61-15.2-25.62A12,12,0,0,0,113.06,53.75Z"/><path class="cls-1" d="M84.77,125.77c-4.32-3.68-8-8.51-14.44-2.78L70,121.31l11-15.1c1.08,3.15,1.43,6.21,3,8.31,1.74,2.27,4.66,3.64,7.13,5.46-2.55,7.37-5.68,14.12-11.71,19-7.56,6.14-16.56,6.05-25.37,0-9.44-6.52-12.88-15-9.89-24.39,2.44-7.62,7.85-13,13.6-18.14.69-.61,2.86-.39,3.79.25a54.92,54.92,0,0,1,5.74,5.11c-1.19.5-2.44,1.53-3.56,1.4-3.26-.37-6.52-3-9.38,1.17-3.3,4.76-6.27,9.5-4.53,15.65,2.08,7.38,10.88,14.75,18.53,15.56C75.71,136.37,81.21,133.13,84.77,125.77Z"/><path class="cls-1" d="M408.54,318.54c.72-10,1.64-18.62,1.88-27.3.23-8.11-.35-16.24-.38-24.36a19.83,19.83,0,0,1,1.07-7.7c3.76-8.74,7.9-17.32,11.82-25.79C426.56,262.49,423.38,290.81,408.54,318.54Z"/><path class="cls-1" d="M444.54,118.3c-10,6.52-10,6.52-10.66,14.34l-11.49-14.81c.57-.47,1-.9,1-.85,4.78,3.29,8,.43,11.54-2.55,4.82-4.09,9.89-7.9,14.91-11.75,3.7-2.84,8.53-5,5.82-11.71,6.63,7.66,13.91,14.14,17.06,23.41,1.61,4.73.25,9.29-4,12.47s-9.15,3.76-13.54.88C451.42,125.23,448.3,121.69,444.54,118.3Zm17.93-14.22-14.83,11.7c2.58,4,5.29,7.11,10.11,6.47,4.39-.59,7.83-3,9.29-7.25C468.63,110.43,466,107.15,462.47,104.08Z"/><path class="cls-1" d="M2.55,235.57c1.77,8.9,8.5,6.57,13.81,7.28,5.11.68,10.26,1.15,15.41,1.48,6.8.44,10.11-2.32,11-8.78s-1.91-10.91-8.39-11.86a237.42,237.42,0,0,0-24.82-2.56c-2-.08-4.12,2.8-7.06,5l1.86-16.44,1.22-1.11c1.2,9.44,8.17,7.38,13.61,8.23,4.6.72,9.25,1.12,13.87,1.72,7.81,1,12.74,6.07,13,14a37.54,37.54,0,0,1-1.28,11.31c-1.71,6-6,9-12.31,8.85s-12.62-.85-18.93-1.22c-4.82-.28-10.45-2.71-12.19,5.83L0,255.79l1.35-19.2Z"/><path class="cls-1" d="M1262.57,336.67h8.12V413h-8.12Z"/><path class="cls-1" d="M482.57,215.2a76.57,76.57,0,0,1-8.51,1.92,3.71,3.71,0,0,1-2.91-1.92c-2.08-5.2-4.65-10.38-5.59-15.82-1.63-9.41,4.22-17.13,14.63-21,10.83-4,20.9-1.79,25.76,7.36,3.23,6.08,4.13,13.43,5.73,20.3.2.87-1.43,2.71-2.6,3.24a16.63,16.63,0,0,1-8.32,1.12c.83-1.23,1.42-2.77,2.54-3.63,5.65-4.38,5.82-4.79,2.88-11.39-4.09-9.2-12.26-12.51-22.34-9.07-10.67,3.64-15.38,11-13.26,20.21.89,3.87,2.86,5.61,6.77,5.71a28.75,28.75,0,0,1,5.36,1.14Z"/><path class="cls-1" d="M449.39,148.8l-.39,5.14-1.11.53-7.62-12.63c3.86,1,7.13,2.43,10.4,2.42,7.64,0,15.27-.72,22.91-1.15,4.15-.23,8.3-.67,12.44-.62,1.89,0,3.77,1,5.65,1.54-.93,1.77-1.54,3.83-2.84,5.25-6.77,7.33-13.87,14.36-20.53,21.79-2.92,3.25-5.07,7.18-7.8,11.14l-6.57-15.71,1.11-.91,4.9,3.12c1.94-4.28,10-5.56,7.31-11.58C461.82,145.2,465.8,146.8,449.39,148.8Zm21.25,7.57,11-10.31-15.53.8Z"/><path class="cls-1" d="M338.92,24.5c-.5-1.6-1.56-3.26-1.4-4.8.51-5.18-2.58-6.48-6.74-7.2-10.28-1.77-17.54,3-20.35,13.64s1,19.06,10.05,22.54c3.73,1.43,6.62,1.44,8.78-2.54.83-1.54,2.43-2.66,4.08-4.39,1.56,8.42-1.41,12-8.41,11.22-1.16-.12-2.3-.35-3.45-.52-19.08-2.69-27-21.31-15.71-37,3.66-5.08,8.81-8.09,14.9-7.57s12.26,2.35,18.31,3.86c3.75.94,5,3.31,3.22,7.08a35.76,35.76,0,0,0-1.62,5.48Z"/><path class="cls-1" d="M228.15,40.66c-5.15-12.11-5.15-12.11-14.88-10-4.88,1-6.16,3.93-6.06,13.91L212,46.61l.14,1.27L198,51.3c8.91-13.79,8.26-29.7,13-44a30.06,30.06,0,0,1,2.36-4.5c1.35,1.2,3.08,2.16,4,3.64,5.12,8.18,9.94,16.54,15.06,24.72,2.71,4.33,4.07,10.08,11.14,10.32L243,43l-18.32,2.56-.5-1.16Zm-18.5-12.5L220.51,26l-6.83-12.21-1.1.28Z"/><path class="cls-1" d="M518.15,257.14l-12.49,1-.84-1c3.48-4.26,13.77-5,7.5-14.51-10.63.83-22,1.46-33.33,2.87-1.57.2-2.67,4.21-4.7,7.67l-2-23.35c1.11.65,2,.87,2,1.22,1,6.34,5.55,5.77,10.14,5.36,9.23-.82,18.47-1.54,27.41-2.27,3.62-9.32-3.91-10.27-9.71-12.5l.57-1.69,12.5-.95Z"/><path class="cls-1" d="M70,83.72,81.31,70.47c-2.76,7,2.82,10,6.4,13.61,6,6,12.28,11.71,18.91,18,1.91-2.09,5.37-4.38,6.41-7.49.89-2.65-1-6.23-1.66-9.4l1.61-.56,6.26,7.26L96.66,114.7c5.07-7.6-1.07-10.22-4.55-13.91-3.88-4.12-7.93-8.08-11.87-12.14C76.94,85.25,74.08,80.78,70,83.72Z"/><path class="cls-1" d="M266.51,0c-7.06,1.73-5.28,7.39-5.31,12.16,0,9,0,17.94,0,26.86,8.45,2,8.42,1.93,13.22-4.92.63-.9,1.8-1.43,3.83-3L277,42.86H247.67c7.7-4.35,4.61-11.6,5.15-17.63.41-4.63.12-9.32.07-14,0-4.29,2.17-9.69-6.68-9.85L247.84,0Z"/><path class="cls-1" d="M329.81,407.4c3.92-7,6.95-12.93,10.47-18.53a18.67,18.67,0,0,1,6.22-6.2c12.68-7.17,25.54-14,37.89-20.72A181.7,181.7,0,0,1,329.81,407.4Z"/><path class="cls-1" d="M1270.66,317.87h-8v-15h8Z"/></g></g></svg>