<svg xmlns="http://www.w3.org/2000/svg" viewBox="0 0 557.55 476.42"><defs><style>.cls-1{fill:#38727e;}</style></defs><title>Asset 1</title><g id="Layer_2" data-name="Layer 2"><g id="ARTBOARD_2" data-name="ARTBOARD 2"><path class="cls-1" d="M473.18,191.92a10.61,10.61,0,0,0,3.94-1.1c2.22-1.06,4.16-1,5.4.57a9.44,9.44,0,0,1,5.08,1.79c-3.06,0-6.1.6-7.65,2.34s-8.15,5.88-18.14,7.32a13.88,13.88,0,0,1-6.65,6.16,14.76,14.76,0,0,0,4.11-5.69s-5.07,1.86-8,3.13-.14-2.54-.14-2.54-2.07-.8,0-2.15c-.76-.75-1.95-3.29,1.53-3s6.73.84,9.49-2.09a1.89,1.89,0,0,1-2.37-2.43c-1-1.2-1.83-1.61-1.35-3.43-2.23-.24-2.5-2-1.44-3.61-2.19-.43-2.56-2.46-1.54-3.4-1.61-1.38-1.76-2.46-1-3.64-1.66-.56-2.66-2.62-1.43-3.52a2.19,2.19,0,0,1-1.29-3.08c-1.17-1.33-7.51-10.9-8.55-17.57.1-1.27,2.65.44,9.48,4.91A50.71,50.71,0,0,1,466,173.64c1.73,2.56,1.52,6.72,1.76,9.86C468.2,189.57,470.39,191.74,473.18,191.92Z"/><path class="cls-1" d="M468.86,181.69s4.61-.72,4.57,2.77.26,5.07.94,6.1c-2.44.63-4.22-1.59-4.75-3.63A35.12,35.12,0,0,1,468.86,181.69Z"/><path class="cls-1" d="M502.92,241s3.77-.7,5,2.16a6.63,6.63,0,0,1,3.34,2.35c-1.49-.55-4.8-1.3-6.59-.33a12,12,0,0,1-6,1.62c.5,2.26-1.17,2.51-3,3.56s-4.46,2.14-4.68,3.56c-1.3.36-2-2.1-1.86-2.62-.57.61-1.55-1.1-.71-2.22-.79.33-.5-1.44,0-2-1,.94-.56-1.15-.16-1.57-.58.06-.54-1.19-.11-1.56-.66-.33-3.73.25-6.36,2.34-2.43,1.42.25-2.17.25-2.17s-4.35.07-1.2-1.58c-1.58-.49-.3-2.36,2.16-2.4-1.19-.58,4-1.14,7.76-.74a2,2,0,0,1,1.82-2.2c-1.17-.26.21-2.2.9-2.41-.31-.62.51-1.7,2.25-1.51-.82-.53.5-1.08,1.82-1.11-.74-.65.65-1.81,2.42-1.36-.41-.86.77-1.23,2.16-1.26,1.05-.95,6.92-5.57,9.88-8.38s4.34-3.91,5-2.83-.39,6.75-3,11.23-5.32,3.67-8.34,5.85A6.58,6.58,0,0,0,502.92,241Z"/><path class="cls-1" d="M84.29,356.13s2.75-.32,3.5,1.8a4.78,4.78,0,0,1,2.29,1.86c-1-.47-3.39-1.17-4.73-.56a8.7,8.7,0,0,1-4.41.88c.25,1.65-1,1.75-2.32,2.42s-3.32,1.32-3.55,2.34c-1,.19-1.38-1.61-1.22-2-.44.41-1.07-.87-.41-1.63-.59.2-.29-1.06.1-1.45-.75.63-.34-.86,0-1.14-.42,0-.33-.89,0-1.13-.46-.27-2.7,0-4.7,1.38-1.82.91.28-1.56.28-1.56s-3.14-.16-.79-1.2c-1.11-.43-.1-1.72,1.67-1.62-.83-.47,3-.63,5.63-.15a1.44,1.44,0,0,1,1.42-1.5c-.83-.24.25-1.57.77-1.69-.19-.46.45-1.2,1.69-1-.57-.42.41-.75,1.37-.72-.51-.5.55-1.28,1.81-.86-.25-.64.61-.85,1.62-.81.8-.63,5.26-3.68,7.53-5.56s3.32-2.61,3.72-1.8-.61,4.85-2.73,7.95-4,2.39-6.3,3.81A4.75,4.75,0,0,0,84.29,356.13Z"/><path class="cls-1" d="M297.81,201.61s3.19-2.13,5.44,0a6.63,6.63,0,0,1,4,.84c-1.58.09-4.92.7-6.18,2.3a12,12,0,0,1-4.89,3.86,4.1,4.1,0,0,1-.39,5.4c-2.48,2.92-2.42,8.67-2.07,10.07-3.48.14-3.81-6.16-3.85-6.72-.29.78-2.53-1.26-2.2-2.62-.6.61-1-1.13-.79-1.85-.52,1.25-1-.84-.76-1.38-.51.28-1-.88-.72-1.39-.74,0-3.33,1.7-4.92,4.66-1.67,2.26-.63-2.09-.63-2.09s-4,1.78-1.73-1c-1.65.17-1.2-2.05,1-3.05-1.32-.06,3.25-2.64,6.84-3.74a2,2,0,0,1,.81-2.74c-1.17.22-.68-2.1-.12-2.57-.53-.45-.21-1.77,1.47-2.27-1-.17,0-1.19,1.24-1.74-.94-.3-.12-1.92,1.69-2.2-.71-.63.22-1.44,1.48-2,.59-1.29,4.16-7.85,5.78-11.6s2.45-5.31,3.46-4.57,2.31,6.36,1.64,11.52-3.44,5.47-5.36,8.66A6.58,6.58,0,0,0,297.81,201.61Z"/><path class="cls-1" d="M424.57,35s6.22-.47,7.69,4.38a10.77,10.77,0,0,1,5,4.39c-2.31-1.15-7.53-3-10.59-1.7a19.56,19.56,0,0,1-10,1.56c.41,3.74-1.67,6.15-4.87,7.33-5.85,2.15-10.37,10.33-11,12.59-5-2.59-.47-11.77-.08-12.59-1,.88-2.58-3.81-1-5.47-1.34.39-.54-2.42.36-3.25-1.74,1.34-.69-2,0-2.56-.95,0-.67-2,.09-2.55-1-.65-6.07-.26-10.69,2.66-4.17,1.87.78-3.47.78-3.47s-7-.65-1.67-2.77c-2.47-1.08-.07-3.87,3.91-3.49-1.83-1.14,6.71-1.13,12.67.18.47-3.47,3.33-3.23,3.33-3.23-1.84-.62.72-3.52,1.89-3.74-.39-1.06,1.12-2.67,3.9-2-1.23-1,1-1.65,3.14-1.48-1.09-1.18,1.37-2.82,4.15-1.77-.5-1.47,1.46-1.86,3.71-1.66,1.87-1.35,12.17-7.77,17.45-11.79s7.71-5.55,8.54-3.7-1.82,10.84-6.89,17.61-9.25,5-14.51,8A10.7,10.7,0,0,0,424.57,35Z"/><path class="cls-1" d="M238.6,277s1.61,1.6,4.38-.19,5-1.75,6.26-.58a7.08,7.08,0,0,1,4.26.28c-4.56,1.63-5.75,2-9.21,6.69a17.09,17.09,0,0,1-10,6.48c.94,2.85,2.32,6.26,1.56,7.8a1.54,1.54,0,0,1-2.23.67s2,0,1.63-1.8-2.16,0-1.9.92c-.56-.7-.1-2.06,1.53-2.72a34.21,34.21,0,0,1-2.4-4.5,11.28,11.28,0,0,0-6.29,5.11c-1.35,2.76-2.93-.77-1.61-1.87-1.56.3-.41-2.23-.17-2.3-1.6.48-3.11-.8.24-1.81a15.61,15.61,0,0,0,5.77-3.39s-1.59,1.09-1.7-1.31c-1,1.08-1.29-.83-1.6-3-1.59,1.09-1.37-1.68-1.76-3-1.07,1.37-1.57-1.44-1.66-2.63-.54,1.38-2-2.6-2-4.7-.37-.8-4.53-4.64-7.57-6.07s-6.32-5.8-6.07-10.18c4.37,1.95,19.38,7.09,21.92,9.06s4.79,2.92,5.77,8.34C236,275,238.6,277,238.6,277Z"/><path class="cls-1" d="M45.81,421.08s.29,1.25,2.15,1.22,2.89.64,3.17,1.59a4,4,0,0,1,2,1.41c-2.67-.58-3.35-.77-6.4.44a9.63,9.63,0,0,1-6.7.12c-.4,1.65-.76,3.69-1.58,4.19a.87.87,0,0,1-1.27-.35s1,.6,1.32-.37-1-.63-1.18-.13c-.06-.5.57-1,1.55-.84a19.2,19.2,0,0,1,.2-2.87,6.35,6.35,0,0,0-4.54.56c-1.47.91-1.17-1.24-.21-1.37-.84-.33.47-1.19.61-1.15-.91-.25-1.25-1.31.65-.8a8.79,8.79,0,0,0,3.77.1s-1.08,0-.42-1.14c-.79.22-.37-.78.13-1.91-1.08,0-.16-1.21,0-1.94-.92.33-.32-1.16,0-1.75-.67.5-.2-1.86.44-2.85a14.66,14.66,0,0,0-1.8-5.17,6.53,6.53,0,0,1,.14-6.68c1.51,2.24,7.14,9.18,7.77,10.88s1.42,2.83.27,5.71A4.5,4.5,0,0,0,45.81,421.08Z"/><path class="cls-1" d="M370.62,145.87s5.33-2,6.75-.12a10.3,10.3,0,0,1,5,1.2s-4,.33-5.13,1.89S371.67,156,359.76,156c-9,.27-11.62,3.32-11.62,3.32s-1.77-2.69.32-3.58c-2.2.49-1.82-1.71.41-2.12-3,.31-2.14-1.62.84-2.43s7.35-1.6,7.35-1.6-3.07-8.74-3.81-12.95c-.58-1.92-8.55-8.74-7.73-13.25,3.62,1.34,15.05,6.35,18.82,10.18,2,2.19,1.59,5.87,1.59,5.87s4.24-3.28,7.77-4.25,6.42-2.37,9-1.48a34.13,34.13,0,0,0,12.53,1.45c3,.22-1.41,2.25-6.63,3.13S376.6,136.07,370.62,145.87Z"/><path class="cls-1" d="M233.64,357.41s5.33-2,6.75-.12a10.3,10.3,0,0,1,5,1.2s-4,.33-5.13,1.89-5.55,7.15-17.46,7.17c-9,.27-11.62,3.32-11.62,3.32s-1.77-2.69.32-3.58c-2.2.49-1.82-1.71.41-2.12-3,.31-2.14-1.62.84-2.43s7.35-1.6,7.35-1.6-3.07-8.74-3.81-12.95c-.58-1.92-8.55-8.74-7.73-13.25,3.62,1.34,15.05,6.35,18.82,10.18,2,2.19,1.59,5.87,1.59,5.87s4.24-3.28,7.77-4.25,6.42-2.37,9-1.48a34.13,34.13,0,0,0,12.53,1.45c3,.22-1.41,2.25-6.63,3.13S239.62,347.62,233.64,357.41Z"/><path class="cls-1" d="M17.27,381.34s2.88-1.06,3.65-.06a5.55,5.55,0,0,1,2.69.65s-2.15.18-2.77,1-3,3.86-9.43,3.88c-4.85.14-6.28,1.8-6.28,1.8s-1-1.45.17-1.93c-1.19.26-1-.93.22-1.15-1.64.17-1.16-.87.45-1.31s4-.87,4-.87a65.23,65.23,0,0,1-2.06-7c-.31-1-4.62-4.72-4.18-7.16,2,.73,8.13,3.43,10.16,5.5a4.68,4.68,0,0,1,.86,3.17,15.37,15.37,0,0,1,4.2-2.3c1.91-.53,3.47-1.28,4.84-.8a18.49,18.49,0,0,0,6.77.78c1.63.12-.76,1.22-3.58,1.69S20.49,376.05,17.27,381.34Z"/><path class="cls-1" d="M330.56,343.37s3.78-1.39,4.78-.09a7.28,7.28,0,0,1,3.53.85s-2.83.24-3.64,1.34-3.93,5.07-12.38,5.08c-6.36.19-8.24,2.36-8.24,2.36s-1.25-1.91.22-2.53c-1.56.35-1.29-1.22.29-1.51-2.15.22-1.52-1.14.59-1.72s5.21-1.14,5.21-1.14a85.78,85.78,0,0,1-2.7-9.18c-.41-1.36-6.06-6.2-5.48-9.39,2.57,1,10.67,4.5,13.34,7.21a6.14,6.14,0,0,1,1.13,4.16,20.19,20.19,0,0,1,5.51-3c2.51-.69,4.55-1.68,6.35-1a24.25,24.25,0,0,0,8.89,1c2.15.16-1,1.6-4.7,2.22S334.8,336.43,330.56,343.37Z"/><path class="cls-1" d="M371.78,244.93s5-3,6.63-.3a3.46,3.46,0,0,1,3.21,1.12c-2.82.39-4.18.41-5,2.62s-4.18,4.33-5.56,4.74c2.53,1.91,4,2.71,3.81,5.71s-2.26,8.32-1.49,10.24c-2.07,1.15-3.62-1.39-3.62-1.39s-2.28.88-2.76-2.24c-1.26,1.23-1.71-1.12-1.54-2.73-1.11.66-1.27-1.51-1.22-2.37-1.47-.28-1.15-2.66-1.15-2.66-1,1.14-1-2.23-1-2.23s-3.92,2-5.62,5.22c-1.5,1.76-2.36-1.77-1.34-2.93-1.29.26-.77-2.12.49-3.15-1.57.41-2.51-2.9.51-3.29s6.45-1.55,7-2.43-.21-2.22,1.07-2.74c-1.41-1.66-.36-3.15.31-3.29a1.34,1.34,0,0,1,.81-2.07c-1-.82,1.79-2.3,2-2.35-1.18-.23.11-1.6.58-1.74-.52-.43.79-1.28,1.21-1.41-.86-.26-.4-1.77.4-2.14a2.29,2.29,0,0,1,1.29-2.22c-.24-2.08,0-3.14.87-2.74.14-1.48.55-3.17,1.23-2.85-.3-1.21.69-4,1.79-3,.11-1.6,1.52-2.55,2-1.46-.23-1.63,1.73-2.48,2.09-2.59a106.86,106.86,0,0,1,1.74,11.42c.42,4-3.15,5.58-5.55,8.66S371.69,243.32,371.78,244.93Z"/><path class="cls-1" d="M9.43,463.4s2.69-1.58,3.54-.16a1.84,1.84,0,0,1,1.71.6c-1.5.21-2.23.22-2.68,1.4a5.66,5.66,0,0,1-3,2.53c1.35,1,2.14,1.44,2,3s-1.21,4.43-.79,5.46c-1.1.61-1.93-.74-1.93-.74s-1.21.47-1.47-1.19c-.67.65-.91-.6-.82-1.46-.59.35-.68-.81-.65-1.26-.78-.15-.61-1.42-.61-1.42-.51.61-.56-1.19-.56-1.19a7.67,7.67,0,0,0-3,2.78c-.8.94-1.26-.94-.71-1.56-.69.14-.41-1.13.26-1.68-.84.22-1.34-1.55.27-1.75S4.5,466,4.77,465.5s-.11-1.18.57-1.46c-.75-.89-.19-1.68.17-1.76a.71.71,0,0,1,.43-1.1c-.51-.44,1-1.23,1-1.26-.63-.12.06-.85.31-.93-.28-.23.42-.68.64-.75-.46-.14-.21-.94.21-1.14a1.22,1.22,0,0,1,.69-1.18c-.13-1.11,0-1.68.46-1.46.08-.79.29-1.69.66-1.52-.16-.65.37-2.13,1-1.57.06-.85.81-1.36,1.09-.78-.12-.87.92-1.32,1.12-1.38a57.1,57.1,0,0,1,.93,6.09c.22,2.13-1.68,3-3,4.61S9.38,462.54,9.43,463.4Z"/><path class="cls-1" d="M110.35,278s3.6-4.61,6.05-2.72a3.47,3.47,0,0,1,3.4-.14c-2.48,1.4-3.74,1.92-3.7,4.29s-2.29,5.56-3.42,6.46c3.06.84,4.73,1,5.64,3.9s1,8.57,2.39,10.06c-1.5,1.83-3.88,0-3.88,0s-1.8,1.66-3.39-1.06c-.72,1.61-2-.41-2.44-2-.79,1-1.74-.93-2-1.76-1.47.29-2.05-2-2.05-2-.47,1.41-1.79-1.69-1.79-1.69s-2.92,3.27-3.3,6.92c-.74,2.18-2.85-.77-2.32-2.23-1.11.72-1.49-1.69-.71-3.11-1.31,1-3.4-1.77-.74-3.24s5.43-3.82,5.59-4.83-1-2,0-2.94c-1.93-1-1.5-2.8-.92-3.18a1.34,1.34,0,0,1,0-2.23c-1.2-.41.81-2.8,1-2.91-1.18.22-.49-1.52-.1-1.84-.64-.21.26-1.48.6-1.75-.9.07-1-1.5-.42-2.14a2.29,2.29,0,0,1,.38-2.54c-1-1.85-1.13-2.93-.2-2.87-.41-1.43-.66-3.15.09-3.1-.73-1-.83-4,.57-3.4-.49-1.52.47-2.93,1.36-2.11-.81-1.43.7-2.94,1-3.18a106.73,106.73,0,0,1,5.83,10c1.86,3.55-.87,6.35-2,10.09S109.67,276.58,110.35,278Z"/><path class="cls-1" d="M499.6,87.52s-3.22-.64-.49-3.13c-1.3-.9-3.68-4.3,1.44-4.81s10-.51,13.28-5.48c4.35-6.91,13.84-9.57,14.84-9.68a15.68,15.68,0,0,0,5.45-2.61c3-2.12,5.82-2.46,8-.55,2.4-.14,5.5-.11,7.86,1.3-4.47.77-8.67,2.47-10.54,5.36-7.51,11.58-28.12,16.64-28.12,16.64s-6.9,4-10.87,6.62S499.6,87.52,499.6,87.52Z"/><path class="cls-1" d="M535.27,68.86s4.84,3.69,9,13.51a75.84,75.84,0,0,0,13.32,19s-13.8-5.24-15-8.35c-1.31.78-3.34-.41-4-3.31-2.06,0-4.25-2.58-4.08-3.72s-3.13,1.14-5.49-6.26S532,68.5,535.27,68.86Z"/><path class="cls-1" d="M517.65,96a3,3,0,0,1-1.13-3.58c-1-1-1.45-1.11-.57-3.18-.8-.8-1.54-1-.34-3.17a4.08,4.08,0,0,1-.16-4.51c.05-8.74,2.34-16.09,6.43-16.59a22.78,22.78,0,0,1,9.5.8l.16.53c-1.49,2.67-2.5,11.56.71,21s-1.72,32.08-7.1,36A54.06,54.06,0,0,0,521,103.53c-1.69-1.61-1.89-2.19-1.8-4A3.09,3.09,0,0,1,517.65,96Z"/><path class="cls-1" d="M98.24,404.61s-1.07-.21-.17-1c-.43-.3-1.22-1.43.48-1.6s3.33-.17,4.41-1.82a8.59,8.59,0,0,1,4.93-3.22,5.18,5.18,0,0,0,1.81-.87c1-.7,1.94-.82,2.66-.18a4.66,4.66,0,0,1,2.61.43,5.21,5.21,0,0,0-3.51,1.78c-2.5,3.85-9.35,5.53-9.35,5.53s-2.29,1.33-3.61,2.2S98.24,404.61,98.24,404.61Z"/><path class="cls-1" d="M110.09,398.41a11.36,11.36,0,0,1,3,4.49,25.22,25.22,0,0,0,4.43,6.32s-4.59-1.74-5-2.78c-.43.26-1.11-.14-1.31-1.1-.69,0-1.41-.86-1.36-1.24s-1,.38-1.82-2.08S109,398.29,110.09,398.41Z"/><path class="cls-1" d="M104.23,407.42a1,1,0,0,1-.37-1.19c-.33-.35-.48-.37-.19-1.06-.27-.26-.51-.33-.12-1.05a1.36,1.36,0,0,1-.05-1.5c0-2.91.78-5.35,2.14-5.52a7.57,7.57,0,0,1,3.16.27l.05.18c-.49.89-.83,3.84.24,7s-.57,10.67-2.36,12a18,18,0,0,0-1.39-6.55c-.56-.54-.63-.73-.6-1.31A1,1,0,0,1,104.23,407.42Z"/><path class="cls-1" d="M228.43,145s-2.33.69-1.41-1.88c-1.16-.14-3.88-1.55-.71-3.65s6.38-3.78,6.8-8.16c.47-6,5.76-11,6.38-11.45a11.52,11.52,0,0,0,2.67-3.59c1.21-2.41,3-3.61,5.05-3.12a10.37,10.37,0,0,1,5.59-1.85c-2.66,2-4.82,4.6-5.05,7.14-.93,10.17-12.67,20.58-12.67,20.58s-3.13,5-4.83,8.08S228.43,145,228.43,145Z"/><path class="cls-1" d="M245.35,120.49s4.44.74,10.52,5.76a56.15,56.15,0,0,0,15.27,7.86s-10.84,1.33-12.69-.3c-.59,1-2.32.88-3.73-.8-1.36.7-3.67-.22-4-1s-1.66,1.82-5.75-2.21S243.09,121.37,245.35,120.49Z"/><path class="cls-1" d="M243.15,144.32a2.2,2.2,0,0,1-2-2c-1-.34-1.33-.23-1.47-1.89-.8-.24-1.36-.12-1.32-2a3,3,0,0,1-1.66-2.9c-3-5.74-4-11.34-1.51-13.08a16.85,16.85,0,0,1,6.5-2.75l.29.29c-.05,2.25,2.35,8.43,7.69,13.47s9.93,21.6,7.77,26a40,40,0,0,0-9.54-11.46c-1.67-.47-2-.78-2.54-2A2.28,2.28,0,0,1,243.15,144.32Z"/><path class="cls-1" d="M162.42,221.81s-2.18-.43-.33-2.12c-.88-.61-2.49-2.91,1-3.25s6.77-.34,9-3.7c2.94-4.68,9.36-6.47,10-6.55a10.6,10.6,0,0,0,3.69-1.76c2-1.43,3.94-1.66,5.41-.37a9.45,9.45,0,0,1,5.31.88c-3,.52-5.86,1.67-7.13,3.63-5.08,7.83-19,11.25-19,11.25s-4.67,2.71-7.35,4.48S162.42,221.81,162.42,221.81Z"/><path class="cls-1" d="M186.55,209.19s3.28,2.49,6.06,9.14a79.37,79.37,0,0,0,5.53,10.26s-5.85-.94-6.66-3c-.89.53-2.26-.28-2.68-2.24-1.4,0-2.88-1.75-2.76-2.52s-2.12.77-3.71-4.23S184.35,208.94,186.55,209.19Z"/><path class="cls-1" d="M174.63,227.53a2,2,0,0,1-.76-2.42c-.68-.71-1-.75-.39-2.15-.54-.54-1-.68-.23-2.15a2.76,2.76,0,0,1-.11-3.05c0-5.91,1.58-10.89,4.35-11.22a15.4,15.4,0,0,1,6.43.54l.11.36c-1,1.8-1.69,7.82.48,14.18s-.45,17.45-4.08,20.11a92.92,92.92,0,0,0-3.55-9.08c-1.15-1.09-1.28-1.48-1.22-2.68A2.09,2.09,0,0,1,174.63,227.53Z"/></g></g></svg>