<svg xmlns="http://www.w3.org/2000/svg" xmlns:xlink="http://www.w3.org/1999/xlink" viewBox="0 0 92.82 95.21"><defs><style>.cls-1{isolation:isolate;}.cls-2{fill:url(#linear-gradient);}.cls-3{fill:url(#linear-gradient-2);}.cls-4,.cls-5{fill:#231f20;}.cls-4{opacity:0.3;}.cls-4,.cls-5,.cls-7{mix-blend-mode:overlay;}.cls-5{opacity:0.6;}.cls-6{fill:#fff;}.cls-7{opacity:0.4;}.cls-8{fill:url(#linear-gradient-3);}.cls-9{fill:url(#linear-gradient-4);}.cls-10{fill:url(#linear-gradient-5);}.cls-11{fill:url(#linear-gradient-6);}.cls-12{fill:url(#linear-gradient-7);}.cls-13{fill:url(#linear-gradient-8);}.cls-14{fill:url(#linear-gradient-9);}.cls-15{fill:url(#linear-gradient-10);}.cls-16{fill:url(#linear-gradient-11);}.cls-17{fill:url(#linear-gradient-12);}.cls-18{fill:url(#linear-gradient-13);}.cls-19{fill:url(#linear-gradient-14);}.cls-20{fill:url(#linear-gradient-15);}.cls-21{fill:url(#linear-gradient-16);}.cls-22{fill:url(#linear-gradient-17);}.cls-23{fill:url(#linear-gradient-18);}.cls-24{fill:url(#linear-gradient-19);}.cls-25{fill:url(#linear-gradient-20);}.cls-26{fill:url(#linear-gradient-21);}.cls-27{fill:url(#linear-gradient-22);}.cls-28{fill:url(#linear-gradient-23);}.cls-29{fill:url(#linear-gradient-24);}</style><linearGradient id="linear-gradient" x1="5.04" y1="88.52" x2="93.76" y2="-6.96" gradientUnits="userSpaceOnUse"><stop offset="0" stop-color="#b1b7c2"/><stop offset="1" stop-color="#fff"/></linearGradient><linearGradient id="linear-gradient-2" x1="-13.91" y1="100.53" x2="70.43" y2="17.08" gradientUnits="userSpaceOnUse"><stop offset="0" stop-color="#ef184b"/><stop offset="1" stop-color="#ff9e15"/></linearGradient><linearGradient id="linear-gradient-3" x1="19.58" y1="39.01" x2="23.06" y2="39.01" gradientUnits="userSpaceOnUse"><stop offset="0" stop-color="#1c1d1f"/><stop offset="1" stop-color="#595959"/></linearGradient><linearGradient id="linear-gradient-4" x1="23.35" y1="38.98" x2="25.03" y2="38.98" xlink:href="#linear-gradient-3"/><linearGradient id="linear-gradient-5" x1="25.41" y1="39.62" x2="28.65" y2="39.62" xlink:href="#linear-gradient-3"/><linearGradient id="linear-gradient-6" x1="29.06" y1="39.62" x2="32.55" y2="39.62" xlink:href="#linear-gradient-3"/><linearGradient id="linear-gradient-7" x1="33" y1="39.6" x2="36.79" y2="39.6" xlink:href="#linear-gradient-3"/><linearGradient id="linear-gradient-8" x1="37.06" y1="39.62" x2="40.3" y2="39.62" xlink:href="#linear-gradient-3"/><linearGradient id="linear-gradient-9" x1="40.69" y1="38.98" x2="42.36" y2="38.98" xlink:href="#linear-gradient-3"/><linearGradient id="linear-gradient-10" x1="42.82" y1="39.6" x2="46.12" y2="39.6" xlink:href="#linear-gradient-3"/><linearGradient id="linear-gradient-11" x1="46.39" y1="39.6" x2="52.22" y2="39.6" xlink:href="#linear-gradient-3"/><linearGradient id="linear-gradient-12" x1="52.51" y1="39.62" x2="56" y2="39.62" xlink:href="#linear-gradient-3"/><linearGradient id="linear-gradient-13" x1="56.45" y1="39.6" x2="60.24" y2="39.6" xlink:href="#linear-gradient-3"/><linearGradient id="linear-gradient-14" x1="60.48" y1="39.18" x2="62.17" y2="39.18" xlink:href="#linear-gradient-3"/><linearGradient id="linear-gradient-15" x1="62.64" y1="39.62" x2="66.12" y2="39.62" xlink:href="#linear-gradient-3"/><linearGradient id="linear-gradient-16" x1="16.6" y1="48.61" x2="23.9" y2="48.61" xlink:href="#linear-gradient-2"/><linearGradient id="linear-gradient-17" x1="24.07" y1="48.65" x2="32.53" y2="48.65" xlink:href="#linear-gradient-2"/><linearGradient id="linear-gradient-18" x1="33" y1="48.61" x2="38.3" y2="48.61" xlink:href="#linear-gradient-2"/><linearGradient id="linear-gradient-19" x1="39.06" y1="48.61" x2="41.61" y2="48.61" xlink:href="#linear-gradient-2"/><linearGradient id="linear-gradient-20" x1="42.22" y1="48.61" x2="47.99" y2="48.61" xlink:href="#linear-gradient-2"/><linearGradient id="linear-gradient-21" x1="48.38" y1="48.65" x2="55.67" y2="48.65" xlink:href="#linear-gradient-2"/><linearGradient id="linear-gradient-22" x1="55.81" y1="48.61" x2="61.44" y2="48.61" xlink:href="#linear-gradient-2"/><linearGradient id="linear-gradient-23" x1="61.22" y1="48.61" x2="68.52" y2="48.61" xlink:href="#linear-gradient-2"/><linearGradient id="linear-gradient-24" x1="68.59" y1="48.61" x2="73.68" y2="48.61" xlink:href="#linear-gradient-2"/></defs><title>Asset 1</title><g class="cls-1"><g id="Layer_2" data-name="Layer 2"><g id="Layer_1-2" data-name="Layer 1"><path class="cls-2" d="M25.82,2C35.36-8.48,90.2,25,92.74,47.88s-54.68,59-71.09,43.63C7.41,78.13-.08,30.35,25.82,2Z"/><path class="cls-3" d="M46.32,92.69C32.58,95.09-5.56,48.45.69,29.27S50.17,2,77.42,18.38C106.67,36,69.61,88.64,46.32,92.69Z"/><path class="cls-4" d="M68.67,26.94C84.06,33.58,75.27,69,64,77.83,52.22,87.08,13.15,83,11.54,48.44,10.8,32.76,35.27,12.53,68.67,26.94Z"/><path class="cls-5" d="M68.67,25.36C84.06,32,75.27,67.46,64,76.25c-11.82,9.25-50.89,5.14-52.5-29.39C10.8,31.18,35.27,10.95,68.67,25.36Z"/><path class="cls-6" d="M68.67,23.44c15.4,6.64,6.6,42.1-4.62,50.89-11.82,9.25-50.89,5.14-52.5-29.39C10.8,29.26,35.27,9,68.67,23.44Z"/><path class="cls-6" d="M68.67,22.44c15.4,6.64,6.6,42.11-4.62,50.89-11.82,9.25-50.89,5.14-52.5-29.39C10.8,28.26,35.27,8,68.67,22.44Z"/><g class="cls-7"><path class="cls-6" d="M48.34,77.72A40.4,40.4,0,0,1,24.39,70c-8-6-12.46-15-13-26.09-.24-5.09,2.19-10.71,6.68-15.4,6.77-7.09,17.06-11.16,28.24-11.16a56.56,56.56,0,0,1,22.39,4.94c4.43,1.91,7.22,6.39,8.07,12.95,1.67,12.94-4.6,31.84-12.67,38.15C60.64,76.15,54.88,77.72,48.34,77.72Zm-2-60.08c-11.11,0-21.33,4-28.05,11.08-4.43,4.65-6.84,10.19-6.61,15.22,1.08,23.16,19.2,33.53,36.68,33.53,6.49,0,12.19-1.54,15.63-4.24C72,67,78.2,48.18,76.54,35.31,75.7,28.84,73,24.43,68.62,22.55A56.32,56.32,0,0,0,46.32,17.63Z"/></g><path class="cls-8" d="M20.2,40.51v-3h-.61V37h1.94v.5h-.58v3h1.45V39.15h.67V41H19.58v-.5Z"/><path class="cls-9" d="M23.87,40.52V38.72h-.51v-.49h1.16v2.29H25V41H23.35v-.49Zm-.09-3.24a.3.3,0,0,1,.11-.23.41.41,0,0,1,.28-.1.42.42,0,0,1,.28.09.29.29,0,0,1,.12.23.29.29,0,0,1-.12.23.42.42,0,0,1-.28.1.41.41,0,0,1-.28-.1A.3.3,0,0,1,23.77,37.29Z"/><path class="cls-10" d="M28.54,38.23v1.05H28a.64.64,0,0,0-.29-.46,1,1,0,0,0-.57-.16,1,1,0,0,0-.71.26.9.9,0,0,0-.27.68,1,1,0,0,0,.26.69.94.94,0,0,0,.75.3,1.05,1.05,0,0,0,1-.55l.54.21a1.61,1.61,0,0,1-1.55.83,1.67,1.67,0,0,1-1.24-.45,1.43,1.43,0,0,1-.45-1,1.29,1.29,0,0,1,.49-1A1.72,1.72,0,0,1,27,38.15a1.55,1.55,0,0,1,.93.27v-.2Z"/><path class="cls-11" d="M32.55,39.76H29.78a1,1,0,0,0,.36.62,1.2,1.2,0,0,0,.77.24A1.34,1.34,0,0,0,32,40.16l.57.21a1.67,1.67,0,0,1-.73.54,2.53,2.53,0,0,1-.94.18,2.12,2.12,0,0,1-1.29-.4,1.27,1.27,0,0,1-.54-1.07,1.29,1.29,0,0,1,.52-1.05,1.89,1.89,0,0,1,1.2-.41,2,2,0,0,1,1.21.4A1.45,1.45,0,0,1,32.55,39.76Zm-.67-.4a1,1,0,0,0-.36-.53,1.11,1.11,0,0,0-.72-.24,1.05,1.05,0,0,0-.67.21.87.87,0,0,0-.34.55Z"/><path class="cls-12" d="M34.23,38.23v.34a2.24,2.24,0,0,1,1.14-.38,1,1,0,0,1,.53.13.61.61,0,0,1,.27.31,1.73,1.73,0,0,1,.06.54v1.36h.56V41h-1.2V39.19a.55.55,0,0,0-.11-.41.41.41,0,0,0-.28-.1,1.84,1.84,0,0,0-1,.35v1.49h.57V41H33v-.49h.58V38.72H33v-.49Z"/><path class="cls-13" d="M40.2,38.23v1.05h-.58a.64.64,0,0,0-.29-.46,1,1,0,0,0-.57-.16,1,1,0,0,0-.71.26.9.9,0,0,0-.27.68,1,1,0,0,0,.26.69.94.94,0,0,0,.75.3,1.05,1.05,0,0,0,1-.55l.54.21a1.61,1.61,0,0,1-1.55.83,1.67,1.67,0,0,1-1.24-.45,1.43,1.43,0,0,1-.45-1,1.29,1.29,0,0,1,.49-1,1.72,1.72,0,0,1,1.13-.41,1.55,1.55,0,0,1,.93.27v-.2Z"/><path class="cls-14" d="M41.2,40.52V38.72h-.51v-.49h1.16v2.29h.51V41H40.69v-.49Zm-.09-3.24a.3.3,0,0,1,.11-.23.41.41,0,0,1,.28-.1.42.42,0,0,1,.28.09.29.29,0,0,1,.12.23.29.29,0,0,1-.12.23.42.42,0,0,1-.28.1.41.41,0,0,1-.28-.1A.3.3,0,0,1,41.11,37.29Z"/><path class="cls-15" d="M46.12,40.52V41H45v-.34a1.62,1.62,0,0,1-1.05.38,1.28,1.28,0,0,1-.78-.25.76.76,0,0,1-.33-.63.77.77,0,0,1,.35-.64,1.41,1.41,0,0,1,.85-.26,1.86,1.86,0,0,1,.9.24v-.28a.89.89,0,0,0,0-.33.45.45,0,0,0-.22-.21,1,1,0,0,0-.46-.09.79.79,0,0,0-.71.33l-.62-.14a1.56,1.56,0,0,1,1.43-.65,2.17,2.17,0,0,1,.64.08,1,1,0,0,1,.4.22.68.68,0,0,1,.18.29,1.89,1.89,0,0,1,0,.49v1.29ZM44.92,40a1.54,1.54,0,0,0-.85-.28.74.74,0,0,0-.45.13.4.4,0,0,0-.18.34.41.41,0,0,0,.16.33.65.65,0,0,0,.43.13,1.41,1.41,0,0,0,.89-.33Z"/><path class="cls-16" d="M47,40.52V38.72h-.55v-.49h1.2v.35a2.06,2.06,0,0,1,1.15-.39.79.79,0,0,1,.78.43,2.19,2.19,0,0,1,1.2-.43,1,1,0,0,1,.53.12.61.61,0,0,1,.28.3,1.54,1.54,0,0,1,.07.54v1.38h.58V41H51V39.24a1.55,1.55,0,0,0,0-.34.27.27,0,0,0-.13-.16.47.47,0,0,0-.25-.06,1.74,1.74,0,0,0-.94.36v1.49h.57V41H49V39.19a.65.65,0,0,0-.09-.39.38.38,0,0,0-.32-.12,2,2,0,0,0-.95.36v1.49h.58V41H46.39v-.49Z"/><path class="cls-17" d="M56,39.76H53.23a1,1,0,0,0,.36.62,1.2,1.2,0,0,0,.77.24,1.34,1.34,0,0,0,1.07-.46l.57.21a1.67,1.67,0,0,1-.73.54,2.53,2.53,0,0,1-.94.18,2.12,2.12,0,0,1-1.29-.4,1.27,1.27,0,0,1-.54-1.07A1.29,1.29,0,0,1,53,38.57a1.89,1.89,0,0,1,1.2-.41,2,2,0,0,1,1.21.4A1.45,1.45,0,0,1,56,39.76Zm-.67-.4a1,1,0,0,0-.36-.53,1.11,1.11,0,0,0-.72-.24,1.05,1.05,0,0,0-.67.21.87.87,0,0,0-.34.55Z"/><path class="cls-18" d="M57.68,38.23v.34a2.24,2.24,0,0,1,1.14-.38,1,1,0,0,1,.53.13.61.61,0,0,1,.27.31,1.73,1.73,0,0,1,.06.54v1.36h.56V41H59V39.19a.55.55,0,0,0-.11-.41.41.41,0,0,0-.28-.1,1.84,1.84,0,0,0-1,.35v1.49h.57V41h-1.8v-.49H57V38.72h-.58v-.49Z"/><path class="cls-19" d="M60.48,38.72v-.49h.43V37.8l.65-.5v.93h.61v.49h-.61v1.35a1.09,1.09,0,0,0,0,.4c0,.05.1.08.21.08a1.13,1.13,0,0,0,.35-.06V41a1.73,1.73,0,0,1-.5.07.93.93,0,0,1-.48-.11.48.48,0,0,1-.23-.28,2.34,2.34,0,0,1,0-.57V38.72Z"/><path class="cls-20" d="M62.64,39.62a1.3,1.3,0,0,1,.5-1.06,1.89,1.89,0,0,1,1.23-.41,1.91,1.91,0,0,1,1.23.41,1.36,1.36,0,0,1,0,2.12,1.9,1.9,0,0,1-1.23.41,1.88,1.88,0,0,1-1.24-.41A1.31,1.31,0,0,1,62.64,39.62Zm.69,0a.85.85,0,0,0,.31.67,1.1,1.1,0,0,0,.75.26,1.09,1.09,0,0,0,.75-.27.89.89,0,0,0,0-1.34,1.1,1.1,0,0,0-.74-.26,1.08,1.08,0,0,0-.75.27A.86.86,0,0,0,63.33,39.62Z"/><path class="cls-21" d="M21.53,49.64H19l-.53,1.57h.84v.87H16.6v-.87h.84l1.9-5.29H18.5v-.78H22v.78h-.87l1.94,5.29h.78v.87H21.18v-.87H22Zm-.26-.81-.92-2.91h-.09l-1,2.91Z"/><path class="cls-22" d="M24.91,51.22V46h-.83v-.87h2.38l1.83,4.76,1.85-4.76h2.4V46h-.84v5.21h.84v.87H29.91v-.87h.83V46l-2.4,6.15h-.21L25.76,46v5.21h.76v.87H24.07v-.87Z"/><path class="cls-23" d="M33.86,51.22V46H33v-.87h2.31a6.59,6.59,0,0,1,1.43.11,1.52,1.52,0,0,1,.84.58,1.73,1.73,0,0,1,.36,1.1,1.76,1.76,0,0,1-.22.87,1.39,1.39,0,0,1-.64.59,1.71,1.71,0,0,1,.89.66,1.84,1.84,0,0,1,.31,1.06,1.89,1.89,0,0,1-.23.93,1.69,1.69,0,0,1-.62.65,2.44,2.44,0,0,1-.84.31,7.6,7.6,0,0,1-1.25.08H33v-.87Zm1-3.19h.65a1.6,1.6,0,0,0,1-.26,1,1,0,0,0,.3-.77q0-1-1.34-1h-.65Zm0,3.19h.39a6,6,0,0,0,1.13-.08,1,1,0,0,0,.59-.36,1.15,1.15,0,0,0,.23-.74,1.08,1.08,0,0,0-.22-.69,1,1,0,0,0-.56-.37,3.91,3.91,0,0,0-1-.09h-.6Z"/><path class="cls-24" d="M39.81,51.22V46h-.75v-.87h2.55V46h-.75v5.21h.75v.87H39.06v-.87Z"/><path class="cls-25" d="M43.12,51.22V46h-.9v-.87H48v2.09h-.86V46h-3v2.07h2.58v.87H44.17v2.27h3V50H48v2.13H42.22v-.87Z"/><path class="cls-26" d="M49.38,51.22V46h-1v-.87h2.37l3,5.4V46h-1v-.87h2.85V46h-1v6.15H53.57l-3.33-5.93v5h1v.87H48.38v-.87Z"/><path class="cls-27" d="M58.1,51.22V46H56.67v1.77h-.86V45.14h5.63v2.64h-.86V46H59.15v5.21h.9v.87H57.21v-.87Z"/><path class="cls-28" d="M66.15,49.64h-2.5l-.53,1.57H64v.87H61.22v-.87h.84L64,45.92h-.84v-.78h3.55v.78H65.8l1.94,5.29h.78v.87H65.8v-.87h.86Zm-.26-.81L65,45.92h-.09l-1,2.91Z"/><path class="cls-29" d="M69.48,51.22V46h-.9v-.87h2.84V46h-.85v5.21H72.7V48.86h1v3.23H68.59v-.87Z"/></g></g></g></svg>