<svg xmlns="http://www.w3.org/2000/svg" xmlns:xlink="http://www.w3.org/1999/xlink" viewBox="0 0 111.38 153.02"><defs><style>.cls-1{isolation:isolate;}.cls-2,.cls-7{opacity:0.5;}.cls-2{mix-blend-mode:screen;fill:url(#linear-gradient);}.cls-11,.cls-3{fill:#1d1d1b;}.cls-4{fill:#575756;}.cls-5{fill:#dadada;}.cls-17,.cls-6,.cls-7{fill:#fcaf75;}.cls-13,.cls-15,.cls-17,.cls-18,.cls-7{mix-blend-mode:multiply;}.cls-8{fill:#ededed;}.cls-9{fill:#1d71b8;}.cls-10{fill:#fff;}.cls-11,.cls-18{opacity:0.15;}.cls-12,.cls-18{fill:#3c3c3b;}.cls-13{opacity:0.25;}.cls-14{fill:#ffc794;}.cls-15{fill:#cea55f;}.cls-15,.cls-17{opacity:0.3;}.cls-16{fill:#c6c6c6;}</style><linearGradient id="linear-gradient" x1="875.2" y1="124.02" x2="971.73" y2="124.02" gradientTransform="matrix(-1, 0, 0, 1, 971.97, 0)" gradientUnits="userSpaceOnUse"><stop offset="0"/><stop offset="1" stop-color="#fff"/></linearGradient></defs><title>Asset 2</title><g class="cls-1"><g id="Layer_2" data-name="Layer 2"><g id="Layer_1-2" data-name="Layer 1"><path class="cls-2" d="M.24,107.57c0-3.9,2.72-9,6.08-11.34,1.89-1.34,3.58-1.52,4.7-.74,0,0,14.75,9,14.75,9a2.29,2.29,0,0,1,1,.92l2.43,1.32a1,1,0,0,1,.4.7l1.72,1a28.22,28.22,0,0,0,7.7-.27,3.13,3.13,0,0,1,2.71.69,12.61,12.61,0,0,0,5.5,3.27l6.12-4,43.43,27.57L63.44,153,20.16,129.6l7.54-4.89-.39-.31-.2-.16c-.2-.18-.38-.36-.56-.55l-.16-.16c-.18-.2-.34-.4-.5-.62l-.14-.17c-.16-.21-.3-.44-.45-.67l-.14-.2c-.14-.22-.27-.46-.4-.7l-.15-.27c-.11-.22-.23-.46-.34-.69l-.19-.38c-.16-.35-.33-.73-.5-1.11a2.68,2.68,0,0,1-2.22.39l-1.12-.56a2.76,2.76,0,0,1-2.07-.1l-16-7.07C1,110.94.24,109.63.24,107.57Z"/><path class="cls-3" d="M0,97.22c0,3.9,2.74,5.47,6.11,3.53a13.5,13.5,0,0,0,6.11-10.58c0-3.9-2.74-5.47-6.11-3.53A13.5,13.5,0,0,0,0,97.22Z"/><path class="cls-4" d="M16.55,106.95a11.79,11.79,0,0,1,5.34-9.24,3.76,3.76,0,0,1,3.76-.38,3.74,3.74,0,0,1,1.58,3.46A11.79,11.79,0,0,1,21.89,110c-1.52.88-2.9.93-3.87.31A3.82,3.82,0,0,1,16.55,106.95Z"/><path class="cls-5" d="M21.22,111.4c2.16.93,4.29-1.52,5.72-3.65,1.3-3,3.53-6.63,2.16-7.75-1.56-1.11-5.76.06-8.59,1.18C20,104.87,18.43,109.6,21.22,111.4Z"/><path class="cls-6" d="M44.86,111.14l-.06,0a4.63,4.63,0,0,1-1.56,1.27c-.73.33-.18.88-1.1,1.35l-1.31.62a42.22,42.22,0,0,0-5.69,3.25c-.88.63-2.79.55-3.49,1.21a11.92,11.92,0,0,0-.93,1,17.56,17.56,0,0,1-2.08-1.23c-2.65-1.84-3.79-4-5.22-7.41l-3.13-2.8c-1.36-3.89,3.89-9.74,7.28-9l6,4.07,9.3,6.29,1.62,1.09Z"/><path class="cls-7" d="M24.28,110.42c1.37,3.65,3.3,4.71,5.91,5.3s8.49-1.23,11.05-4.36a3.63,3.63,0,0,1,1.84.55s-4.39,2.95-5.33,3.76l-7.4,4L30,119.5l-.18-.1-.46-.27L29.2,119l-.37-.25c-2.77-1.86-3.94-4-5.4-7.53l-3.13-2.8-.22-2.12Z"/><polygon class="cls-8" points="63.44 153.02 96.77 135.66 53.34 104.4 20.01 121.75 63.44 153.02"/><polygon class="cls-3" points="29.38 122.57 53.47 110.03 52.16 109.08 28.06 121.63 29.38 122.57"/><polygon class="cls-3" points="32.99 125.17 57.08 112.62 56.27 112.04 32.18 124.59 32.99 125.17"/><polygon class="cls-3" points="35.16 126.74 59.26 114.19 58.45 113.61 34.35 126.15 35.16 126.74"/><polygon class="cls-3" points="37.34 128.31 61.44 115.76 60.62 115.18 36.53 127.72 37.34 128.31"/><polygon class="cls-3" points="41.7 131.44 65.79 118.9 64.98 118.31 40.89 130.86 41.7 131.44"/><polygon class="cls-3" points="43.88 133.01 67.97 120.46 67.16 119.88 43.07 132.43 43.88 133.01"/><polygon class="cls-3" points="60.92 126.83 70.15 122.03 69.34 121.45 60.11 126.25 60.92 126.83"/><polygon class="cls-3" points="48.23 136.15 72.33 123.6 71.51 123.02 47.42 135.56 48.23 136.15"/><polygon class="cls-3" points="50.41 137.71 74.5 125.17 73.69 124.58 49.6 137.13 50.41 137.71"/><polygon class="cls-3" points="58.23 136.34 76.68 126.73 75.87 126.15 57.42 135.76 58.23 136.34"/><polygon class="cls-3" points="72.47 137.03 83.22 131.44 82.4 130.85 71.66 136.45 72.47 137.03"/><polygon class="cls-3" points="74.65 138.6 85.39 133.01 84.58 132.42 73.84 138.02 74.65 138.6"/><path class="cls-9" d="M58.9,146.3c-2.63-1.89-2.43-4.65.45-6.14a10.45,10.45,0,0,1,10,.72c2.63,1.89,2.43,4.65-.45,6.14A10.45,10.45,0,0,1,58.9,146.3Zm.35-.18a9.75,9.75,0,0,0,9.3.67c2.68-1.39,2.87-4,.42-5.73a9.75,9.75,0,0,0-9.3-.67C57,141.79,56.8,144.35,59.25,146.12Z"/><path class="cls-9" d="M59.66,145.9c-2.24-1.61-2.07-4,.38-5.24a8.92,8.92,0,0,1,8.52.61c2.24,1.61,2.07,4-.38,5.24A8.92,8.92,0,0,1,59.66,145.9Zm.23-.12a8.45,8.45,0,0,0,8.07.58c2.32-1.21,2.49-3.44.36-5a8.45,8.45,0,0,0-8.07-.58C57.93,142,57.77,144.25,59.89,145.78Z"/><path class="cls-9" d="M61.46,145a1.69,1.69,0,0,1,.23-3.12,5.32,5.32,0,0,1,5.07.36,1.69,1.69,0,0,1-.23,3.12A5.31,5.31,0,0,1,61.46,145Zm.23-.12a4.85,4.85,0,0,0,4.62.33,1.54,1.54,0,0,0,.21-2.85A4.85,4.85,0,0,0,61.9,142,1.54,1.54,0,0,0,61.69,144.85Z"/><path class="cls-9" d="M60.54,142.18s-1-.44-1-.44a3.61,3.61,0,0,1,.82.3l-.48-.56c0-.08,1,.35,1,.35a3.58,3.58,0,0,1-.82-.3l.48.57C60.56,142.17,60.55,142.18,60.54,142.18Z"/><path class="cls-9" d="M60.27,142.56l-.1,0H60l-.16,0-.48-.14-.14-.06a.22.22,0,0,1-.07-.07.12.12,0,0,1,0-.08.19.19,0,0,1,0-.08l.07-.07.1,0h.13l.16,0,.48.14.14.06a.22.22,0,0,1,.07.07.12.12,0,0,1,0,.08.19.19,0,0,1,0,.08Zm-.35,0a.41.41,0,0,0,.2,0,.19.19,0,0,0,.12-.08.1.1,0,0,0,0-.11.28.28,0,0,0-.16-.09l-.48-.14a.41.41,0,0,0-.2,0,.19.19,0,0,0-.12.08.1.1,0,0,0,0,.11.27.27,0,0,0,.15.09Z"/><path class="cls-9" d="M59,142.55c.1,0,0,.18,0,.18l1,.17a5.72,5.72,0,0,1-1.07-.1L59,143C58.85,142.95,59,142.55,59,142.55Z"/><path class="cls-9" d="M60,143.17l-.28,0v.28l.25.06a6.7,6.7,0,0,1-1.15-.21,5.69,5.69,0,0,1,1.13-.23C60,143.16,60,143.17,60,143.17Zm-.37.05-.67.09.67.16Z"/><path class="cls-9" d="M60,143.7c0,.07-.48.11-.48.11l0,.13.54.12c0,.07-.53,0-.53,0a.17.17,0,0,1,0,.07.13.13,0,0,1,0,.05l-.08,0-.13,0h-.16l-.11,0-.07-.07a.28.28,0,0,1,0-.08l-.06-.18S60,143.7,60,143.7ZM59,144a.18.18,0,0,0,.09.11.33.33,0,0,0,.19,0,.24.24,0,0,0,.16-.06.12.12,0,0,0,0-.11l0-.14-.46,0Z"/><path class="cls-9" d="M60.28,144.37c0,.06-.35.15-.35.15l-.48.34c-.08,0,.36-.35.36-.35l-.68-.06,0,0a4.43,4.43,0,0,1,.79,0Z"/><path class="cls-9" d="M60.7,144.88c.07.06-.28.21-.28.21l.15.12.07.08a.12.12,0,0,1,0,.08.13.13,0,0,1,0,.08l-.11.07-.16,0h-.13l-.12,0-.1-.06-.19-.16S60.7,144.88,60.7,144.88Zm-.62.55a.3.3,0,0,0,.16.07.35.35,0,0,0,.19,0c.08,0,.12-.07.13-.11s0-.07-.06-.11l-.15-.12-.41.18Z"/><path class="cls-9" d="M61.5,145.68c.06,0,.08-.08.07-.11s0-.07-.1-.1a.35.35,0,0,0-.18,0,.3.3,0,0,0-.17.06l-.52.37c-.08,0,.44-.42.44-.42l.12-.06.13,0,.12,0,.12,0,.09.07a.16.16,0,0,1,0,.07.11.11,0,0,1,0,.08.25.25,0,0,1-.08.09l-.52.37C61,146.06,61.5,145.68,61.5,145.68Z"/><path class="cls-9" d="M61.95,145.67a1.83,1.83,0,0,1,.34.09l.11.05a.2.2,0,0,1,.07.06.11.11,0,0,1,0,.08.19.19,0,0,1,0,.09l-.07.07-.07,0h-.15a.12.12,0,0,1,0,.09.15.15,0,0,1,0,.11.24.24,0,0,1-.09.07l-.1,0h-.12l-.12,0-.24-.09A5,5,0,0,1,61.95,145.67Zm.07.07-.23.27.21.08a.4.4,0,0,0,.18,0,.21.21,0,0,0,.14-.08c.05-.06.06-.1,0-.13a.23.23,0,0,0-.13-.09Zm-.46.54.19.07.09,0h.08l.07,0,.06,0s0-.08,0-.11a.27.27,0,0,0-.13-.08l-.19-.07Z"/><path class="cls-9" d="M63.3,146c0,.06-.48,0-.48,0l-.29.62c-.11,0,.2-.68.2-.68A4.59,4.59,0,0,1,63.3,146Z"/><path class="cls-9" d="M63.45,146.07c.11,0-.06.7-.06.7S63.45,146.07,63.45,146.07Z"/><path class="cls-9" d="M64.37,146.66c.09.06.09.08.07.1l-.07.05-.11,0h-.15l-.13,0-.11,0a.23.23,0,0,1-.08-.07.18.18,0,0,1,0-.1v-.32a.18.18,0,0,1,0-.1.19.19,0,0,1,.07-.06l.11,0h.13l.15,0,.11,0,.07.06a.11.11,0,0,1,0,.07c-.09,0-.11,0-.11,0s0-.07,0-.08l-.07,0-.12,0a.35.35,0,0,0-.18,0,.12.12,0,0,0-.06.12v.32a.13.13,0,0,0,.06.12.35.35,0,0,0,.18,0h.12l.07,0,0,0S64.36,146.67,64.37,146.66Z"/><path class="cls-9" d="M67.55,145.12s.93.47.93.47-.79-.33-.79-.33l.42.57c-.06.08-1-.39-1-.39s.79.33.79.33l-.43-.58C67.52,145.13,67.53,145.12,67.55,145.12Z"/><path class="cls-9" d="M67.86,144.76l.1,0h.13l.16,0,.47.16.14.06a.2.2,0,0,1,.07.07.11.11,0,0,1,0,.08.21.21,0,0,1,0,.08l-.08.07-.1,0h-.13l-.16,0-.46-.16-.14-.06a.2.2,0,0,1-.07-.07.12.12,0,0,1,0-.08.22.22,0,0,1,0-.08Zm.35,0a.41.41,0,0,0-.2,0,.21.21,0,0,0-.13.07.1.1,0,0,0,0,.11.26.26,0,0,0,.15.09l.46.16a.41.41,0,0,0,.2,0,.2.2,0,0,0,.13-.08.1.1,0,0,0,0-.11.26.26,0,0,0-.15-.09Z"/><path class="cls-9" d="M69.15,144.81c-.1,0,0-.18,0-.18l-1-.21a5.68,5.68,0,0,1,1.06.14l.07-.16C69.31,144.42,69.15,144.81,69.15,144.81Z"/><path class="cls-9" d="M68.15,144.15l.28,0,0-.28-.25-.07a6.49,6.49,0,0,1,1.13.25,6,6,0,0,1-1.16.19C68.14,144.16,68.15,144.16,68.15,144.15Zm.38,0,.68-.06-.65-.18Z"/><path class="cls-9" d="M68.23,143.63c0-.07.49-.09.49-.09l0-.13-.53-.14c0-.07.53.07.53.07a.17.17,0,0,1,0-.06l0-.05.09,0,.13,0h.16l.11,0,.07.07a.27.27,0,0,1,0,.08l0,.18S68.23,143.63,68.23,143.63Zm1-.25a.17.17,0,0,0-.08-.11.32.32,0,0,0-.18,0,.26.26,0,0,0-.17,0,.12.12,0,0,0,0,.11l0,.14.46,0Z"/><path class="cls-9" d="M68,143c0-.07.36-.13.36-.13l.52-.32c.07.05-.4.33-.4.33l.67.08,0,0a4.49,4.49,0,0,1-.79-.06Z"/><path class="cls-9" d="M67.65,142.43c-.06-.06.3-.2.3-.2l-.14-.13-.06-.08a.12.12,0,0,1,0-.08.15.15,0,0,1,0-.07l.12-.07.16,0h.13l.11,0,.09.07.18.16S67.65,142.43,67.65,142.43Zm.67-.53a.28.28,0,0,0-.15-.07.37.37,0,0,0-.19,0c-.09,0-.13.06-.14.1s0,.07,0,.11l.14.13.43-.17Z"/><path class="cls-9" d="M66.93,141.6c-.06,0-.09.07-.08.11s0,.07.09.11a.33.33,0,0,0,.17.05.32.32,0,0,0,.18-.05l.56-.35c.08,0-.48.4-.48.4l-.13.06H67.1l-.12,0-.11-.05-.09-.07a.15.15,0,0,1,0-.08.12.12,0,0,1,0-.08.29.29,0,0,1,.09-.08l.56-.35C67.49,141.25,66.93,141.6,66.93,141.6Z"/><path class="cls-9" d="M66.47,141.6a1.75,1.75,0,0,1-.33-.11l-.1-.05a.18.18,0,0,1-.06-.07.11.11,0,0,1,0-.08.21.21,0,0,1,.06-.09l.08-.07.07,0h.15a.1.1,0,0,1,0-.09.16.16,0,0,1,.06-.1.26.26,0,0,1,.1-.06l.11,0,.11,0,.12,0,.23.1A5.42,5.42,0,0,1,66.47,141.6Zm.45-.58-.18-.07-.09,0H66.5l-.06,0s-.05.08,0,.1a.24.24,0,0,0,.12.08l.19.08Zm-.51.52.26-.26-.21-.08a.39.39,0,0,0-.17,0,.22.22,0,0,0-.15.07c-.06.06-.07.1-.06.13a.21.21,0,0,0,.12.09Z"/><path class="cls-9" d="M65.16,141.19c0-.06.48.06.48.06l.36-.61c.1,0-.27.67-.27.67A4.47,4.47,0,0,1,65.16,141.19Z"/><path class="cls-9" d="M65,141.14c-.11,0,.13-.69.13-.69S65,141.14,65,141.14Z"/><path class="cls-9" d="M64.15,140.52c-.09-.06-.08-.09-.06-.1l.07,0,.11,0h.15l.13,0,.11,0a.21.21,0,0,1,.07.07.17.17,0,0,1,0,.1l0,.32a.19.19,0,0,1,0,.1.21.21,0,0,1-.08.06l-.11,0h-.13l-.14,0-.11,0L64,141a.1.1,0,0,1,0-.07c.09,0,.11,0,.11,0s0,.07,0,.08l.06,0,.12,0a.37.37,0,0,0,.19,0,.13.13,0,0,0,.07-.11l0-.32a.13.13,0,0,0,0-.12.34.34,0,0,0-.17-.05h-.12l-.07,0,0,0S64.16,140.52,64.15,140.52Z"/><path class="cls-9" d="M61.93,144.72a1.39,1.39,0,0,1,.19-2.57,4.38,4.38,0,0,1,4.18.3A1.39,1.39,0,0,1,66.1,145,4.38,4.38,0,0,1,61.93,144.72Zm.23-.12a3.91,3.91,0,0,0,3.73.27,1.24,1.24,0,0,0,.17-2.3,3.91,3.91,0,0,0-3.73-.27A1.24,1.24,0,0,0,62.16,144.6Z"/><path class="cls-9" d="M62.06,141l-.43.11a.11.11,0,0,1-.1,0,.07.07,0,0,1,0,0,0,0,0,0,1,0,0l.48-.11-.34-.23s0,0,0,0a.06.06,0,0,1,0,0l.07,0,.07,0,.31.24.23-.26a.14.14,0,0,1,.1,0l.07,0c0,.07-.24.32-.24.32l.48.08.06,0s0,0,0,.05l0,0h-.07l-.49-.1.07.31c0,.06-.07.06-.1.06l-.08,0A2.42,2.42,0,0,1,62.06,141Z"/><path class="cls-9" d="M66,146.33l-.43.11a.11.11,0,0,1-.1,0,.07.07,0,0,1,0,0,0,0,0,0,1,0,0l.48-.11-.34-.23s0,0,0,0a.06.06,0,0,1,0,0l.07,0,.07,0,.31.24.23-.26a.14.14,0,0,1,.1,0l.07,0c0,.07-.24.32-.24.32l.48.08.06,0s0,0,0,.05l0,0h-.07l-.49-.09.07.31c0,.06-.07.06-.1.06l-.08,0A2.38,2.38,0,0,1,66,146.33Z"/><path class="cls-9" d="M72.29,137.08c1,.41,2,.87,3,1.29a11.78,11.78,0,0,0,5.78,1.06,3.56,3.56,0,0,0,2-.75c.37-.39.32-.89-.33-1.22-1.59-.8-3.74-.29-5.21.19-.09,0,0,.12.07.09a10.5,10.5,0,0,1,2.7-.58c.94-.05,2.63.1,2.83.86s-.83,1.09-1.69,1.25a8.49,8.49,0,0,1-3,0,29.36,29.36,0,0,1-5.9-2.15l-.85-.32a4.32,4.32,0,0,0,2.5-.79c.06,0-.07-.11-.13-.06a4.35,4.35,0,0,1-2.61.77c-.6-.2-1.22-.38-1.86-.54l-1.7-.42a3,3,0,0,0-1.06-.12s-.07,0-.06.05c.2.39,1.11.55,1.66.69a12.58,12.58,0,0,0,2.16.4c.28,0,.55,0,.83,0Zm-1.08-.38-.54,0a12.3,12.3,0,0,1-1.87-.33l-.86-.23c-.32-.09-.75-.18-.91-.4a6.21,6.21,0,0,1,1.74.33C69.6,136.24,70.41,136.45,71.21,136.7Z"/><path class="cls-9" d="M63.78,141.88c.67-.91,2.33-1.3,3.9-.93a.61.61,0,0,0,.21.84.11.11,0,0,0,.12,0s.06-.08,0-.12-.57-.41,0-.42a14.29,14.29,0,0,1,1.68.17c.07,0,.1,0,.06-.08-.24-.2-.48-.4-.71-.6s-.21-.37.21-.32l.48.07a6.26,6.26,0,0,1,.65.17,4,4,0,0,0,1.11.49c.07,0,.14,0,.08-.08a5,5,0,0,0-1.14-.51l-.12-.09c-.13-.11-.76-.6-.1-.66a3,3,0,0,1,.59,0,8.32,8.32,0,0,1,1.56.36l.9.33c.09,0,.17,0,.08-.08-.28-.12-.58-.23-.88-.33a22.71,22.71,0,0,1-4.59-2.39,9.72,9.72,0,0,1,1.77.61c.58.24,1.17.46,1.79.66s1.13.35,1.72.5a5.1,5.1,0,0,0,1.28.24,1.5,1.5,0,0,0,.54-.11,1.44,1.44,0,0,0,.74-.13c.7-.39-.16-.81-.72-1.06a12,12,0,0,0-1.55-.59,1.27,1.27,0,0,0-.87,0c-.08,0,0,.11.11.08.44-.19,1.21.19,1.59.35a7.92,7.92,0,0,1,1.25.56c.21.14.45.35.23.52a1,1,0,0,1-.57.18c.18-.14.22-.34-.06-.53a6.87,6.87,0,0,0-2.3-1c-.29-.07-1.89-.34-1.66.13a1.73,1.73,0,0,0,.74.57,8.19,8.19,0,0,0,1.32.56,7.91,7.91,0,0,0,1.51.36,3.35,3.35,0,0,1-1.39-.17c-.4-.1-.81-.21-1.2-.33-.87-.26-1.7-.56-2.51-.9a8.16,8.16,0,0,0-2-.63c-.07,0-.1,0-.06.08a22.17,22.17,0,0,0,4,2.22l-.17,0a3,3,0,0,0-1.5-.06c-.4.18-.08.48.18.69a3.2,3.2,0,0,0-1.1-.15c-.24,0-.37.16-.26.32a4.3,4.3,0,0,0,.75.67l-1-.11a1.75,1.75,0,0,0-.72,0,.27.27,0,0,1,.07-.25s0-.06,0-.07c-1.68-.42-3.47,0-4.18,1C63.59,141.9,63.74,141.93,63.78,141.88Zm9.87-2.61a6.34,6.34,0,0,1-2.19-1c-.11-.09-.35-.33.1-.34h.32a4.94,4.94,0,0,1,.67.08,6.08,6.08,0,0,1,1.06.31c.44.17,2,.86,1.41,1.19h-.14A7.43,7.43,0,0,1,73.65,139.27Z"/><path class="cls-10" d="M29.1,100c-4.69-2-10.82,8.57-7.87,11.4l-5.37-3.32c-1.77-3.91,2.1-11.43,7.36-12Z"/><path class="cls-3" d="M1.77,101.15l9.07-14.66L25.65,97.33a3.76,3.76,0,0,0-3.76.38,11.79,11.79,0,0,0-5.34,9.24A3.82,3.82,0,0,0,18,110.34Z"/><path class="cls-7" d="M48,112c-3.31.59-4.85.21-7.94-1.27-5.76,1.18-12.4-.76-9.58-7.72a27.58,27.58,0,0,0,3.11.53l9.51,6.1Z"/><path class="cls-6" d="M31.22,101.91a28.72,28.72,0,0,0,7.73.7,3.49,3.49,0,0,1,2.72,1,14.38,14.38,0,0,0,9.71,5c1.1,1.94-1,3.38-3.38,3.38-3.67,0-4-.54-7.21-2.35C35,110.8,24.6,111.31,31.22,101.91Z"/><path class="cls-11" d="M67.95,81.17c6.52,3.76,6.52,9.87,0,13.63s-17.09,3.76-23.61,0-6.52-9.87,0-13.63S61.43,77.4,67.95,81.17Z"/><path class="cls-11" d="M106.49,99.48c6.52,3.76,6.52,9.87,0,13.63s-17.09,3.76-23.61,0-6.52-9.87,0-13.63S100,95.72,106.49,99.48Z"/><path class="cls-3" d="M56.66,14.68c.81,3.05.6,6.79,1.65,11.22,1.43,4.44,2.79,12,7.6,17.44.31.49,2.69-4.06,2.58-4.58C66.37,29,66.32,29.36,65,25.17c-.61-3.21-1.28-6.34-1.66-10.24-.23-2.57-1.2-4-2.54-4.54C57.75,9.4,55,11.8,56.66,14.68Z"/><path d="M54.65,79a12.52,12.52,0,0,0-.21,3.28c.21,1,2.82,1.62,2.82,1.62s3.66,3.45,6.77,3.21c1.83-.14,2.45-.63,2.74-1.16a1.73,1.73,0,0,0-.34-1.73c-.36-.5-4.16-2.12-5.11-3.63-.46-.74-1.24-2.29-1.24-2.29l-.32-2.89-5-.21L55,78.57Z"/><path class="cls-3" d="M50.21,42.73l3.21,16.13A49,49,0,0,0,54.12,79c1,2.65,4.51,1.91,6.7,0a128.59,128.59,0,0,1-.63-17.73L60.82,57s.52-2.16.49-10.32c0-4.19-2.4-13.32-2.4-13.32Z"/><path d="M43.54,84.6a9.88,9.88,0,0,0-.42,3.73,3.92,3.92,0,0,0,2.11,2.08A6.56,6.56,0,0,0,51,94.27c4,.1,4-1.52,4-1.52A2.4,2.4,0,0,0,54,91.06,52.89,52.89,0,0,1,50,87.53a8.71,8.71,0,0,1-1-1.76l-.18-2.89h-5.4Z"/><path class="cls-12" d="M52.89,46.2c0,8.17.3,13-1.85,17.14A47.43,47.43,0,0,1,50,68.84c-.63,2.18-.52,11.67-.27,17.3a3.92,3.92,0,0,1-5.48.95,3.64,3.64,0,0,1-1.45-2c-1.41-8.83-2.38-15.82,1.11-22.32-1.12-5.71-1-11.32-.63-17.52a17.77,17.77,0,0,1,1.17-9.31,16.56,16.56,0,0,1,.94-1.85L59.9,37.52C58.39,42.73,55.76,45.56,52.89,46.2Z"/><path class="cls-13" d="M46.27,63.3c-4.46,4.58-3.17,13.45-2,23.78a3.62,3.62,0,0,1-1.45-2c-1.41-8.83-2.38-15.82,1.11-22.32-1.12-5.71-1-11.32-.63-17.52a17.77,17.77,0,0,1,1.17-9.31L53,49.18C48,52.32,43.51,55.69,46.27,63.3Z"/><path class="cls-8" d="M61.44,19.85c-.1,5.87-1.54,17.67-1.54,17.67-14.45,8.78-16.35,1.09-16.35,1.09l-.6-13.53-.4-8.91a14.69,14.69,0,0,1,4.83-3.75c3.8-2.53,7.26-3.6,11.9-2.29a46.17,46.17,0,0,1,2,7.09,10.6,10.6,0,0,1,.12,1.65C61.44,19.19,61.44,19.51,61.44,19.85Z"/><path class="cls-14" d="M48.44,11.83,50.6,7.34l6,3-1.28,3.38C54.25,17.79,47.76,15.28,48.44,11.83Z"/><path class="cls-15" d="M55.62,11.58c0,2.44-.44,3.78-1.91,3.93-1.84,0-3.85-2.83-3.15-4.53l0-2Z"/><path d="M54.72,17.93V16.13l-.91-.62-.5,1.16.5,1.59a84.35,84.35,0,0,1,0,11.34L55.29,31l1-2.32A70.51,70.51,0,0,0,54.72,17.93Z"/><path class="cls-16" d="M53.81,15.51l1.75,1.2s1.27-4.56.06-5.76S53.81,15.51,53.81,15.51Z"/><path class="cls-12" d="M55,9a40.5,40.5,0,0,1,.44,16l.33,19.88a2.17,2.17,0,0,0,3.17,1.93,11.9,11.9,0,0,0,3.73-3.19l-.32-22.28a24.64,24.64,0,0,0-1.23-7.7l-1.81-3.44Z"/><path d="M54.81,8.62s1.29.71,1.33.69,1.55,2.83,1.55,2.83L56.61,13a10.78,10.78,0,0,1,1.32.3,45.77,45.77,0,0,1-2.45,11.21C56.12,18.51,56.19,13,54.81,8.62Z"/><path class="cls-16" d="M49,10.75l-1.13,1.38s1.87,5.29,5.22,5.29a10.49,10.49,0,0,1,.74-1.91C51.37,15.14,49,12.59,49,10.75Z"/><path class="cls-14" d="M53.44.4c-2.93,0-4.6,1.46-4.71,4.61.08,3.32,1.19,6,3.78,7.82a5,5,0,0,0,4.11,1.25c1.78.07,2.1-4.36,2.35-7.55C58.78,3.17,56.73,1.29,53.44.4Z"/><path d="M59,5.26c-.66,1.61-3.55,2.78-6.46,2l-.33,2.63L50.9,9.25l-1.17,1.29-.44-.63C47.12,5.45,47.76,2.18,51.11.4,55.47-1.32,59.86,2.88,59,5.26Z"/><path class="cls-14" d="M50.49,10.38a2.62,2.62,0,0,1-.71-.86,1.23,1.23,0,0,1,0-1.08A.81.81,0,0,1,50.71,8a.91.91,0,0,1,.51.56,2.68,2.68,0,0,1,.12.76l0,.71a.62.62,0,0,1-.1.46.41.41,0,0,1-.41.09A1.07,1.07,0,0,1,50.49,10.38Z"/><path class="cls-12" d="M55.76,25.09V44.72c0,2.52-2.45,4.85-4.93,5.45l-.35.07c-3.17.55-5.9,0-7.93-2.31l-.38-21.35L42,16.7a28.43,28.43,0,0,1,6.73-5.64C48.44,13.77,52.5,19.21,55.76,25.09Z"/><path class="cls-13" d="M50.83,50.16l-.35.07c-3.17.55-5.9,0-7.93-2.31l-.38-21.35,5.45-4.3C45,33.5,45.41,43.13,50.83,50.16Z"/><path d="M47.74,11.71v5h1.63l-1,1.85L55.76,25c-3.27-5.48-6.59-11-7-13.91Z"/><path class="cls-14" d="M36.73,46l-.19,2.79.11,2.48.72,1.84c.13.44.62.56.46,0l.64,2c.14.6.75.61.7,0l-.46-2.65,1.67,3.63c.26.54.93.59.77-.14l-1.16-4,1.23,2.16,1.2,1.45c.5.49,1.14.23.84-.39l-1.27-2s-.55-1.58-.75-2.32a15.07,15.07,0,0,1,.3-1.55l2.88,1.5c.78.25,1.09-.42.39-.93l-2.9-2.56L40,46.31l-.15-.09-.42-1.32-2.74.2Z"/><path class="cls-12" d="M42.13,16.41c-3.12,3.35-4.66,7.22-6.95,12.94a58.32,58.32,0,0,0,1,17.09,6.21,6.21,0,0,0,4.23-.36c-.11-4.65.36-9.65-.11-14.28,2.46-1.54,4.91-6,7.55-9.91C48.64,16.46,45.48,13.5,42.13,16.41Z"/><ellipse cx="55.15" cy="28.51" rx="0.34" ry="0.52"/><ellipse cx="55.15" cy="34.95" rx="0.34" ry="0.52"/><ellipse cx="55.15" cy="41.38" rx="0.34" ry="0.52"/><path class="cls-6" d="M72.54,45.32l-1,2.52-.07.16-.31-.1c-.23-.12-3.84-2.15-3.91-2.23a9.5,9.5,0,0,1-1.66-3.17l-.15-1.22,0-.21.48-2,1-.35c.64,0,.6.39.31.61l-.39.44L68.58,41l1.22.34L69,40.24a5.73,5.73,0,0,1-1-.58c-.36-.25-.55-.78-.09-.81l2.21.91L71.7,42Z"/><path class="cls-17" d="M65.44,41.28l0-.21,2,3.14c1.44,1.36,2.81,1.94,4.09,1.55v2.08l-.07.16-.31-.1c-.23-.12-3.84-2.15-3.91-2.23Z"/><path class="cls-6" d="M108.13,58l-.19,2.23-.44,1.31-1,1.75c-.29.49-.78.39-.77-.06l-.47.83c-.43.65-1,.1-.71-.58l.71-1.74L104.11,64c-.47.64-1.08.23-.81-.63l1-2.41-1,1.89c-.32.43-1,.16-.84-.63L103.43,59a2,2,0,0,0-.11-1.19c-.21-.42-1.82.45-1.82.45l-1.47.85c-.54.08-.77-.06-.7-.41l1.11-1.16,1.25-1.09.55-.48a7,7,0,0,1,2.43-1.13l.07-.23.14-.45,1.21.19,1.8.28L107.8,56l.1.64Z"/><path class="cls-17" d="M103.15,57.65l2.45-.57,1.31,2.21-1.14,4c0-1.06.09-2.33-.61-2.58l-1.22-.17,1-.67-.15-1-2.12-.34Z"/><path class="cls-8" d="M102.63,28.28l.73,8.72.59,7.24c.53,4.2,1.13,7.58.75,9.78a1.54,1.54,0,0,0,0,.61A2.44,2.44,0,0,0,106.07,56a7.81,7.81,0,0,0,1.84.69c1-4.32,1.86-8.48,1.51-11.84l-.7-8.56C108.52,31.37,107.36,27.66,102.63,28.28Z"/><path class="cls-17" d="M101.7,56.48l4.36-.51a2.44,2.44,0,0,1-1.32-1.33l-.07.23A7,7,0,0,0,102.24,56Z"/><path class="cls-18" d="M103.95,44.25c.53,4.2,1.13,7.58.75,9.78a1.54,1.54,0,0,0,0,.61A2.44,2.44,0,0,0,106.07,56c0-.54,0-1.07,0-1.6.27-8.11,2.72-14.92-.06-18.66L103.35,37Z"/><path class="cls-3" d="M82.16,107.54c0-1.57,1.21-2.17,3-2.36,1.56,0,3.67.7,6.43,1.34l3.15,1.72a7,7,0,0,1,.23,4.38,3.46,3.46,0,0,1-3,1l-3.54-1.5-.26-.51C85.3,111.26,82.16,110,82.16,107.54Z"/><path class="cls-3" d="M93.66,101.26c0-1.28,1.15-1.5,2.85-1.63,3.09,0,3.22,1.55,6.06,1.48l2.79,1.7a8.35,8.35,0,0,1,.12,4.69,4,4,0,0,1-3.1.75l-2.87-1.69-.24-.52C96.57,105.65,93.66,103.65,93.66,101.26Z"/><path class="cls-3" d="M103.77,57.65l-10.28,4.3a35.44,35.44,0,0,0,.2,4.81c.65,4.74,2.56,11.9,2.56,11.9,1.38,6.09,1.93,13.64,2.25,21.61.05,2.87,4.32,5.38,7.05,2.67.79-9.72.78-19.16-1.51-25.42,1.09-4.94.06-10.45-.25-16.14C104.07,61.27,103.48,57.77,103.77,57.65Z"/><path class="cls-12" d="M96.08,67.86c0,5.68.06,10.27-1.31,15.2,1.94,6.24,1.42,15.54.09,25.25a4.17,4.17,0,0,1-5.56.76,3.37,3.37,0,0,1-1.34-3.3l-1-21.58A120.25,120.25,0,0,1,85,72.32c-.38-4.73,1.29-15.55,1.29-15.55a19.48,19.48,0,0,0,2.76.54c6.12.77,11.75-1.41,13.49-4.91.09.26.17.51.26.77a25,25,0,0,1,1.14,6.57C104.14,64.73,99.24,66.57,96.08,67.86Z"/><path class="cls-8" d="M85,38.68a61.37,61.37,0,0,1,.55,9.11c0,1.1,0,2.17.06,3.23a28.37,28.37,0,0,0,.73,5.76,23.57,23.57,0,0,0,2.61,1c5.29,1.67,10.09.85,13.9-4.58a71.28,71.28,0,0,0,4.11-17.81c0-3.63-1.2-6.22-4.28-7.08-5.5,1.32-11.1,4.74-16.79,9.62Z"/><path class="cls-6" d="M90.83,28.68l.52,5c3.2,0,8.22-2.24,7.59-3.95l-1.69-3.23Z"/><path class="cls-6" d="M89.31,29.3c1.27,1.45,3.19,1.25,5.14.74,2.85-1.32,4.91-3.27,4.63-7,.23-2.7-1-5.52-5.59-5.37-2.92.09-5.42,1.16-5.59,4.28C87.89,22,87.74,27.86,89.31,29.3Z"/><path class="cls-16" d="M91.18,31.94,90,34.58c5.48-.62,10.39-2.67,9.17-5.2l-1-1.16C98.94,30,93.54,32.22,91.18,31.94Z"/><path class="cls-3" d="M87.91,21.19a4.41,4.41,0,0,0,1.86,2.61,15.39,15.39,0,0,0-.09,2.47c.13,0,1.4,1.14,1.4,1.14l.66,1.83c2.18,1.58,5.43.38,6.42-1,.58-.74,1.21-3.71,1-6.55-.35-2.38-2.06-4.69-5.72-4.85S87.6,18.75,87.91,21.19Z"/><path class="cls-6" d="M90.08,26.62c-.35-.39.19-1.3.58-1.43.55-.18.85.62.9,1a2,2,0,0,1-.32,1.51c-.37.55-1,0-1.14-.44S90.3,26.87,90.08,26.62Z"/><path class="cls-8" d="M89.06,46.14a18.67,18.67,0,0,1-.49,1.95,18.3,18.3,0,0,1-3,2.92,16.28,16.28,0,0,1-6.44,3c-3.76-1.48-4.95-2.55-8.16-6.23-.49-1-.21-2,1.28-3.15,3.2,1.15,4.31,1,6.46,2,2.36-3.84,4.72-7.86,7.12-8.79C88.87,39.42,89.82,42.25,89.06,46.14Z"/><path class="cls-13" d="M85,72.31A119.1,119.1,0,0,0,86.9,84.2l1,21.58a3.38,3.38,0,0,0,1.36,3.3c-.94-9.08-1.36-17.59,0-24.18-2-7.48-3-15.31-.62-21.08,0-2.31-.27-4.39.21-6.07a23.57,23.57,0,0,1-2.61-1S84.62,67.59,85,72.31Z"/><path class="cls-18" d="M71,47.8c2.91,3.13,4.14,4.59,8.16,6.23a16.25,16.25,0,0,0,6.44-3,28.37,28.37,0,0,0,.73,5.76,23.57,23.57,0,0,0,2.61,1,2.63,2.63,0,0,1,.15-.44,5,5,0,0,1,3.56-2.89c-2.23-1.28-3-4.28-3.55-8.27q-.19-1.3-.37-2.74a16.65,16.65,0,0,1-3.18,4.38c-1.69,1.61-3.74,2.68-6.84,4.28C77.47,52.69,74.75,49,71,47.8Z"/><path class="cls-14" d="M69,39.27l.81,2.1v2.25c0,.74-.81.63-.84.11L68.58,41A6.08,6.08,0,0,1,66,39.1a1.73,1.73,0,0,1,2.13-.64,3.69,3.69,0,0,1,2.07,1.29Z"/><path class="cls-14" d="M69,46.42v-.73a.79.79,0,0,0-.22-.54c-1-1.09-2.06-2-2.86-1.81l0,1,2,2.09,1.62.54Z"/></g></g></g></svg>